<svg id="svg" version="1.1" xmlns="http://www.w3.org/2000/svg" xmlns:xlink="http://www.w3.org/1999/xlink" width="400" height="253.4562211981567" viewBox="0, 0, 400,253.4562211981567"><g id="svgg"><path id="path0" d="M283.920 53.511 C 277.850 55.936,278.091 64.938,284.270 66.547 C 285.909 66.974,289.173 66.714,289.961 66.093 C 291.185 65.129,292.522 63.617,292.522 63.197 C 292.522 62.930,292.639 62.595,292.782 62.452 C 293.368 61.867,293.368 59.638,292.784 57.820 C 291.662 54.331,287.244 52.183,283.920 53.511 M121.926 88.723 C 120.246 89.098,117.110 90.573,117.110 90.988 C 117.110 91.112,116.780 91.287,116.376 91.376 C 115.972 91.464,115.441 91.759,115.196 92.030 C 114.951 92.301,114.548 92.522,114.300 92.522 C 113.381 92.522,113.289 93.966,114.093 95.740 C 114.358 96.325,114.575 97.324,114.575 97.959 C 114.575 98.630,114.788 99.511,115.082 100.061 C 115.361 100.581,115.589 101.436,115.589 101.961 C 115.589 102.557,115.709 102.915,115.908 102.915 C 116.236 102.915,116.668 103.949,117.191 105.983 C 117.356 106.625,117.643 107.333,117.830 107.557 C 118.017 107.782,118.233 108.454,118.311 109.052 C 118.389 109.650,118.606 110.231,118.795 110.342 C 118.984 110.454,119.138 110.716,119.138 110.926 C 119.138 111.135,119.362 111.728,119.636 112.244 C 120.282 113.463,121.553 116.311,121.792 117.075 C 122.158 118.250,122.919 118.856,123.839 118.707 C 124.802 118.551,125.878 119.455,126.138 120.639 C 126.217 120.999,126.454 121.920,126.666 122.687 C 126.877 123.454,127.082 124.994,127.120 126.109 C 127.160 127.250,127.366 128.541,127.593 129.061 C 127.814 129.569,128.106 130.596,128.242 131.342 C 128.553 133.054,128.985 134.976,129.316 136.122 C 129.575 137.017,130.188 139.977,131.417 146.261 C 131.785 148.143,132.252 150.318,132.456 151.094 C 132.660 151.870,132.826 152.933,132.826 153.455 C 132.826 153.978,132.935 154.609,133.068 154.858 C 133.201 155.107,133.498 156.839,133.727 158.707 C 133.956 160.575,134.418 163.496,134.752 165.199 C 135.087 166.901,135.365 168.840,135.369 169.508 C 135.374 170.176,135.547 172.205,135.755 174.018 C 136.995 184.836,137.170 184.080,133.321 184.483 C 131.753 184.647,130.419 184.832,130.356 184.895 C 129.947 185.305,130.338 195.675,130.797 196.575 C 131.065 197.101,131.355 198.004,131.442 198.583 C 131.771 200.774,132.023 200.892,136.298 200.853 C 138.362 200.835,140.411 200.737,140.851 200.636 C 142.451 200.270,142.429 200.014,142.155 215.463 C 142.021 223.061,141.856 234.724,141.789 241.381 L 141.667 253.485 145.344 253.485 L 149.020 253.485 149.036 234.537 C 149.050 217.935,149.228 210.744,149.693 207.985 C 149.764 207.567,149.723 206.882,149.602 206.464 C 149.454 205.954,149.494 205.380,149.723 204.721 C 149.910 204.181,150.063 203.285,150.063 202.731 C 150.063 201.497,151.316 200.092,152.061 200.491 C 152.313 200.626,159.169 200.675,168.578 200.610 C 177.425 200.549,184.810 200.501,184.989 200.503 C 185.168 200.505,185.413 200.250,185.533 199.937 L 185.753 199.366 186.018 200.043 C 186.164 200.415,186.462 200.820,186.681 200.942 C 187.173 201.217,187.249 202.352,187.469 212.801 C 187.581 218.070,187.731 220.776,187.924 221.015 C 188.131 221.270,188.238 225.911,188.301 237.428 L 188.390 253.485 191.632 253.485 L 194.875 253.485 195.053 252.788 C 195.260 251.976,195.273 231.454,195.071 224.588 C 194.995 222.009,194.857 217.902,194.764 215.463 C 194.114 198.355,193.527 199.955,200.493 199.849 C 205.969 199.765,205.712 199.831,206.126 198.405 C 206.296 197.818,206.575 197.110,206.745 196.831 C 207.868 194.998,207.703 188.069,206.457 184.756 C 206.267 184.249,206.181 183.764,206.266 183.679 C 206.537 183.408,206.530 183.408,183.270 183.152 C 170.623 183.013,161.815 183.042,155.024 183.245 C 146.896 183.488,145.097 183.482,144.822 183.206 C 144.295 182.680,143.712 180.087,143.468 177.186 C 143.252 174.607,142.940 172.451,142.444 170.089 C 142.312 169.461,141.923 166.895,141.578 164.385 C 141.234 161.876,140.724 158.796,140.444 157.541 C 140.164 156.286,139.932 154.839,139.929 154.326 C 139.926 153.812,139.798 153.071,139.643 152.678 C 139.489 152.286,139.213 150.995,139.030 149.810 C 138.847 148.625,138.523 146.914,138.310 146.008 C 138.097 145.101,137.795 143.676,137.638 142.839 C 137.064 139.763,136.829 138.753,136.369 137.368 C 136.110 136.590,135.766 134.936,135.603 133.693 C 135.441 132.449,134.981 130.462,134.581 129.277 C 134.180 128.091,133.693 126.323,133.498 125.348 C 133.058 123.147,131.918 119.357,131.279 117.970 C 130.479 116.235,130.712 114.435,131.705 114.684 C 132.933 114.992,133.490 113.138,132.535 111.924 C 132.236 111.543,131.954 110.986,131.909 110.685 C 131.863 110.385,131.756 109.626,131.670 108.999 C 131.584 108.371,131.307 107.402,131.055 106.844 C 130.658 105.965,130.225 104.617,129.650 102.471 C 129.566 102.158,129.401 101.901,129.284 101.901 C 129.167 101.901,128.994 101.337,128.899 100.647 C 128.804 99.958,128.520 99.155,128.268 98.865 C 128.016 98.574,127.732 97.919,127.636 97.409 C 127.541 96.900,127.129 95.823,126.722 95.017 C 126.315 94.210,125.982 93.382,125.982 93.177 C 125.982 92.971,125.583 92.122,125.095 91.289 C 124.607 90.456,124.208 89.592,124.208 89.368 C 124.208 89.055,123.107 88.342,122.861 88.496 C 122.835 88.512,122.414 88.614,121.926 88.723 M323.123 97.645 C 322.475 97.817,322.046 98.131,321.795 98.615 C 321.591 99.009,320.913 99.850,320.287 100.485 C 319.662 101.119,319.097 101.897,319.031 102.213 C 318.763 103.512,318.372 125.828,318.375 139.703 C 318.377 151.351,318.309 154.621,318.058 154.829 C 317.615 155.197,306.557 155.235,306.331 154.870 C 306.240 154.722,306.088 154.065,305.994 153.409 C 305.827 152.236,305.808 152.216,304.759 152.075 C 304.173 151.997,303.455 151.717,303.164 151.454 C 302.823 151.145,302.302 150.987,301.698 151.011 C 300.295 151.066,299.731 151.069,296.912 151.040 C 294.640 151.017,294.249 151.078,293.646 151.552 C 292.739 152.266,290.516 152.298,289.384 151.613 C 288.706 151.204,288.195 151.149,285.805 151.229 C 284.271 151.280,282.817 151.318,282.573 151.313 C 282.329 151.309,281.644 151.308,281.052 151.313 C 280.459 151.317,279.136 151.319,278.111 151.317 C 276.452 151.315,276.176 151.385,275.605 151.956 C 275.079 152.481,274.719 152.598,273.621 152.598 C 272.034 152.598,271.483 153.020,271.483 154.235 C 271.483 155.625,270.311 156.013,265.757 156.133 C 265.299 156.145,265.185 156.397,264.917 157.985 C 264.746 158.996,264.483 160.142,264.333 160.533 C 263.862 161.755,265.290 165.685,266.425 166.293 C 267.081 166.644,277.135 166.617,277.489 166.263 C 277.888 165.864,278.792 166.407,279.135 167.252 C 279.446 168.019,279.423 171.397,279.053 179.341 C 278.917 182.269,278.753 193.494,278.688 204.286 C 278.592 220.284,278.501 224.239,278.196 225.705 C 277.893 227.157,277.820 230.005,277.820 240.494 L 277.820 253.485 281.615 253.485 L 285.411 253.485 285.418 228.454 C 285.425 201.818,285.540 192.100,285.932 185.171 C 286.066 182.801,286.245 178.352,286.331 175.285 C 286.549 167.494,286.505 167.913,287.189 167.185 L 287.794 166.540 300.741 166.525 C 314.083 166.510,348.242 166.102,351.546 165.918 C 352.570 165.861,353.649 165.903,353.943 166.012 C 354.236 166.121,354.881 166.116,355.375 166.002 C 356.002 165.858,356.350 165.890,356.527 166.109 C 356.667 166.282,357.038 166.535,357.353 166.672 C 357.915 166.916,357.928 167.015,358.039 172.117 C 358.101 174.975,358.283 177.997,358.444 178.834 C 358.714 180.237,358.948 192.286,359.246 220.152 C 359.405 235.000,359.709 251.286,359.847 252.408 L 359.980 253.485 363.282 253.485 L 366.583 253.485 366.456 235.551 C 366.386 225.688,366.215 213.910,366.076 209.379 C 365.937 204.848,365.742 193.425,365.642 183.994 L 365.462 166.847 366.113 166.420 C 366.658 166.063,367.696 165.974,372.511 165.868 C 379.581 165.714,380.324 165.610,380.441 164.759 C 380.489 164.414,380.698 163.941,380.906 163.708 C 381.429 163.123,381.409 158.021,380.882 157.434 C 380.686 157.214,380.450 156.635,380.360 156.147 L 380.195 155.260 377.107 155.177 C 373.270 155.075,373.087 154.959,373.715 153.043 C 376.659 144.071,376.674 129.466,373.747 123.029 C 373.547 122.590,373.384 122.102,373.384 121.944 C 373.384 121.258,370.805 116.352,370.190 115.868 C 369.813 115.572,369.143 115.336,368.677 115.336 C 367.605 115.336,361.264 114.173,359.442 113.642 C 355.748 112.565,351.432 111.171,350.844 110.864 C 350.485 110.676,350.037 110.522,349.849 110.521 C 349.661 110.520,349.205 110.353,348.835 110.150 C 348.465 109.946,347.592 109.534,346.895 109.233 C 340.506 106.477,340.580 106.555,340.190 102.167 C 339.809 97.867,339.722 97.718,337.472 97.505 C 334.820 97.255,324.204 97.358,323.123 97.645 M282.569 120.359 C 283.200 120.760,284.918 123.301,284.918 123.835 C 284.918 124.137,285.146 124.647,285.425 124.968 C 285.703 125.290,285.932 125.649,285.932 125.768 C 285.932 125.886,286.046 125.982,286.185 125.982 C 287.473 125.982,285.629 121.671,283.888 120.612 C 283.157 120.168,281.883 119.923,282.569 120.359 M278.074 121.149 C 278.074 121.279,278.313 121.461,278.607 121.555 C 279.514 121.843,280.704 122.763,282.207 124.340 L 283.650 125.854 283.650 125.031 C 283.650 124.578,283.544 124.208,283.414 124.208 C 283.284 124.208,283.098 123.958,283.001 123.652 C 282.564 122.277,278.074 119.996,278.074 121.149 M268.695 137.639 C 268.695 137.814,269.291 138.150,269.602 138.150 C 269.948 138.150,269.624 137.680,269.202 137.569 C 268.923 137.496,268.695 137.528,268.695 137.639 M270.215 138.657 C 270.215 138.796,270.472 138.908,270.786 138.906 C 271.247 138.903,271.283 138.855,270.976 138.657 C 270.484 138.339,270.215 138.339,270.215 138.657 M265.797 139.227 C 266.363 141.043,268.552 142.435,269.700 141.709 C 269.998 141.520,269.937 141.423,269.387 141.214 C 268.573 140.904,266.160 139.141,266.160 138.856 C 266.160 138.746,266.038 138.657,265.889 138.657 C 265.725 138.657,265.688 138.880,265.797 139.227 " stroke="none" fill="#f7f7f7" fill-rule="evenodd"></path><path id="path1" d="M0.000 126.743 L 0.000 253.485 70.215 253.485 L 140.431 253.485 140.426 247.085 C 140.420 239.048,140.820 223.938,141.355 211.995 C 141.581 206.951,141.698 202.645,141.614 202.426 C 141.482 202.084,140.798 202.028,136.754 202.028 C 131.301 202.028,131.125 201.970,130.344 199.923 C 129.514 197.747,128.909 192.376,129.248 190.192 C 129.404 189.190,129.531 188.306,129.531 188.228 C 129.531 187.777,127.605 188.237,125.858 189.107 C 124.745 189.661,123.646 190.114,123.418 190.114 C 123.189 190.114,122.861 190.285,122.687 190.494 C 122.513 190.703,122.264 190.875,122.133 190.875 C 121.715 190.875,119.142 192.169,117.792 193.057 C 117.075 193.530,116.291 193.916,116.050 193.916 C 115.809 193.916,115.030 194.259,114.320 194.678 C 113.609 195.097,112.321 195.791,111.457 196.221 C 109.562 197.163,108.755 197.620,107.111 198.683 C 106.422 199.128,105.761 199.493,105.644 199.493 C 105.526 199.493,105.120 199.703,104.743 199.960 C 103.517 200.792,101.366 202.028,101.142 202.028 C 101.022 202.028,100.260 202.471,99.448 203.013 C 96.018 205.304,93.988 206.591,93.806 206.591 C 93.699 206.591,93.262 206.904,92.836 207.288 C 92.409 207.671,91.305 208.498,90.381 209.125 C 89.458 209.753,87.993 210.811,87.127 211.478 C 86.260 212.144,85.095 213.025,84.537 213.435 C 83.980 213.845,83.352 214.331,83.143 214.516 C 82.825 214.796,80.603 216.611,79.721 217.311 C 78.209 218.512,73.845 221.546,73.630 221.546 C 73.477 221.546,73.024 221.888,72.624 222.307 C 72.223 222.725,71.774 223.067,71.626 223.068 C 71.477 223.068,70.682 223.475,69.858 223.972 C 68.159 224.997,62.581 227.865,61.455 228.294 C 61.045 228.450,60.169 228.772,59.508 229.011 C 58.848 229.249,58.242 229.549,58.163 229.678 C 58.083 229.806,57.763 229.911,57.450 229.911 C 57.138 229.911,56.767 230.026,56.627 230.166 C 56.487 230.307,55.751 230.595,54.992 230.808 C 51.828 231.695,48.978 232.406,47.909 232.576 C 47.281 232.676,46.646 232.855,46.497 232.974 C 46.349 233.094,45.265 233.363,44.089 233.572 C 41.250 234.077,39.357 234.466,38.276 234.767 C 37.788 234.903,36.305 235.173,34.981 235.367 C 31.130 235.931,29.365 236.255,28.010 236.646 C 27.313 236.847,26.058 237.124,25.222 237.263 C 24.385 237.401,23.188 237.627,22.560 237.766 C 21.055 238.099,13.787 238.399,12.603 238.177 C 8.887 237.480,9.474 234.085,13.572 232.573 C 14.542 232.215,15.678 231.760,16.096 231.564 C 19.214 230.096,21.869 229.022,23.990 228.372 C 24.428 228.238,24.927 227.959,25.099 227.752 C 25.270 227.546,25.546 227.376,25.712 227.376 C 25.878 227.376,26.605 227.091,27.328 226.743 C 28.050 226.394,28.697 226.109,28.764 226.109 C 29.298 226.109,38.570 221.464,40.772 220.094 C 44.653 217.678,46.026 216.570,49.546 213.009 C 54.667 207.828,56.274 206.088,56.274 205.723 C 56.274 205.554,56.644 205.075,57.098 204.658 C 58.232 203.615,60.277 201.371,61.343 200.001 C 62.533 198.473,63.078 197.835,64.136 196.737 C 64.626 196.229,65.366 195.357,65.779 194.801 C 66.193 194.245,67.075 193.153,67.740 192.376 C 68.404 191.598,68.948 190.846,68.948 190.704 C 68.948 190.562,69.191 190.229,69.488 189.963 C 70.366 189.177,78.098 179.743,81.724 175.032 C 82.905 173.498,84.221 171.830,84.648 171.325 C 85.075 170.820,85.425 170.285,85.425 170.136 C 85.425 169.986,85.632 169.715,85.885 169.533 C 86.138 169.351,86.423 169.030,86.519 168.821 C 86.614 168.612,87.063 167.968,87.516 167.391 C 87.969 166.813,89.153 165.273,90.147 163.969 C 91.141 162.664,92.364 161.198,92.864 160.710 C 93.364 160.222,93.777 159.719,93.782 159.592 C 93.786 159.465,94.388 158.711,95.120 157.917 C 97.519 155.314,98.221 154.477,98.585 153.786 C 98.783 153.412,99.018 153.105,99.108 153.105 C 99.353 153.105,100.029 152.426,102.535 149.664 C 103.790 148.280,105.501 146.446,106.337 145.588 C 107.174 144.729,109.455 142.345,111.407 140.289 C 113.359 138.234,117.437 134.053,120.469 130.999 C 123.501 127.945,125.982 125.314,125.982 125.152 C 125.982 124.991,125.818 124.398,125.618 123.836 C 125.418 123.274,125.185 122.390,125.101 121.871 C 124.906 120.669,124.383 120.152,123.359 120.152 C 122.255 120.152,121.600 119.635,121.054 118.333 C 120.801 117.730,120.278 116.553,119.891 115.716 C 119.505 114.880,118.962 113.625,118.686 112.928 C 118.409 112.231,117.776 110.634,117.279 109.379 C 116.094 106.391,115.533 104.797,114.693 102.028 C 114.312 100.773,113.788 99.090,113.528 98.288 C 113.267 97.486,113.054 96.625,113.054 96.374 C 113.054 96.124,112.918 95.782,112.751 95.615 C 112.584 95.449,112.442 94.675,112.434 93.897 C 112.420 92.418,112.455 92.364,114.511 90.727 C 114.685 90.589,115.712 90.096,116.793 89.631 C 117.874 89.166,119.499 88.442,120.406 88.021 C 123.621 86.528,124.509 86.832,125.786 89.861 C 126.197 90.837,126.858 92.376,127.254 93.283 C 128.833 96.900,130.292 100.982,130.292 101.786 C 130.292 102.254,130.437 102.728,130.615 102.839 C 130.908 103.023,131.805 105.521,132.214 107.290 C 132.303 107.675,132.477 108.052,132.601 108.129 C 132.725 108.206,132.834 108.575,132.844 108.950 C 132.854 109.325,132.956 109.861,133.070 110.139 L 133.279 110.646 133.471 110.139 C 133.577 109.861,133.809 109.461,133.987 109.252 C 134.165 109.043,134.660 108.167,135.087 107.306 C 135.918 105.631,138.460 102.118,139.474 101.244 C 140.320 100.515,143.939 98.015,144.867 97.519 C 146.403 96.698,148.402 95.799,149.034 95.645 C 149.391 95.558,149.994 95.229,150.373 94.914 C 150.753 94.599,151.779 94.170,152.655 93.960 C 154.198 93.591,154.597 93.467,157.288 92.525 C 159.899 91.611,164.667 90.303,166.033 90.126 C 168.250 89.839,170.740 89.092,172.208 88.275 C 173.026 87.820,173.967 87.379,174.300 87.296 C 174.633 87.212,174.905 87.050,174.905 86.934 C 174.905 86.819,175.304 86.580,175.792 86.404 C 176.280 86.228,176.679 86.012,176.679 85.926 C 176.679 85.839,177.221 85.503,177.883 85.179 C 178.546 84.856,179.288 84.418,179.533 84.206 C 180.022 83.784,180.378 83.565,182.032 82.666 C 182.643 82.333,184.227 81.363,185.551 80.510 C 186.876 79.656,188.346 78.743,188.818 78.481 C 189.291 78.218,189.861 77.839,190.086 77.639 C 190.611 77.169,194.498 74.661,195.817 73.939 C 196.375 73.634,196.950 73.233,197.096 73.048 C 197.241 72.863,197.888 72.407,198.534 72.034 C 199.179 71.661,201.056 70.445,202.705 69.332 C 204.354 68.218,205.888 67.191,206.113 67.050 C 207.118 66.421,208.047 65.749,208.817 65.094 C 209.275 64.704,209.821 64.385,210.029 64.385 C 210.237 64.385,210.985 63.929,211.691 63.371 C 212.396 62.814,213.078 62.357,213.206 62.357 C 213.335 62.357,214.392 61.730,215.556 60.963 C 216.721 60.196,217.791 59.569,217.935 59.569 C 218.079 59.569,218.262 59.398,218.343 59.189 C 218.423 58.980,218.673 58.809,218.897 58.809 C 219.441 58.809,221.968 57.314,223.587 56.034 C 224.302 55.469,224.981 55.006,225.096 55.006 C 225.211 55.006,225.697 54.636,226.177 54.183 C 226.656 53.729,228.177 52.389,229.556 51.204 C 230.935 50.019,233.727 47.395,235.759 45.374 C 239.041 42.109,241.135 40.304,241.640 40.304 C 241.732 40.304,242.337 39.968,242.984 39.558 C 243.632 39.147,244.520 38.735,244.958 38.641 C 245.396 38.548,245.913 38.342,246.108 38.184 C 246.303 38.025,246.987 37.762,247.629 37.598 C 249.258 37.183,251.214 36.522,251.965 36.134 C 252.313 35.953,253.511 35.548,254.626 35.233 C 255.741 34.918,257.110 34.517,257.668 34.342 C 258.226 34.167,259.708 33.780,260.963 33.482 C 263.374 32.909,264.742 32.534,267.427 31.714 C 268.333 31.437,269.645 31.131,270.342 31.033 C 271.039 30.936,271.895 30.749,272.243 30.617 C 274.541 29.752,284.218 30.574,286.748 31.850 C 287.928 32.445,291.800 35.216,292.595 36.035 C 292.845 36.292,293.197 36.502,293.379 36.502 C 293.561 36.502,293.984 36.736,294.320 37.021 C 295.770 38.256,297.415 39.338,299.326 40.314 C 301.512 41.432,305.773 45.139,306.101 46.209 C 306.195 46.516,306.395 46.921,306.545 47.107 C 307.018 47.697,308.238 50.957,308.238 51.631 C 308.238 51.986,308.409 52.834,308.619 53.515 C 308.828 54.196,309.164 55.295,309.366 55.957 C 309.569 56.619,309.814 57.674,309.913 58.302 C 310.011 58.929,310.234 59.670,310.408 59.949 C 310.581 60.228,310.806 60.856,310.907 61.343 C 311.008 61.831,311.419 62.926,311.819 63.776 C 312.220 64.626,312.548 65.443,312.548 65.591 C 312.548 65.739,313.317 66.654,314.259 67.625 C 317.437 70.905,320.152 74.062,320.152 74.477 C 320.152 74.619,320.240 74.774,320.347 74.820 C 320.811 75.022,322.439 78.022,323.281 80.228 C 324.677 83.886,325.080 86.604,325.089 92.429 L 325.095 96.519 326.489 96.650 C 327.256 96.722,330.378 96.793,333.426 96.810 C 340.385 96.846,340.431 96.865,340.431 99.733 C 340.431 103.511,341.341 106.374,342.617 106.613 C 343.078 106.700,343.587 106.930,343.748 107.124 C 343.910 107.319,344.147 107.478,344.275 107.478 C 344.403 107.478,345.273 107.833,346.208 108.267 C 349.914 109.986,350.520 110.236,352.598 110.900 C 354.970 111.658,354.969 111.658,356.781 112.346 C 358.279 112.916,360.066 113.299,366.014 114.329 C 370.693 115.140,370.926 115.230,371.492 116.456 C 371.691 116.886,371.962 117.408,372.096 117.617 C 372.501 118.251,373.638 120.862,373.638 121.159 C 373.638 121.312,373.822 121.718,374.047 122.062 C 374.554 122.836,375.412 126.040,375.412 127.160 C 375.412 127.618,375.612 128.538,375.856 129.205 C 376.519 131.020,376.519 144.077,375.856 145.696 C 375.602 146.314,375.412 147.432,375.412 148.302 C 375.412 149.140,375.254 150.205,375.060 150.668 C 373.841 153.587,374.162 153.995,377.841 154.200 C 380.751 154.362,380.844 154.409,381.679 156.108 C 383.025 158.849,382.104 166.645,380.413 166.827 C 380.242 166.845,377.022 166.931,373.257 167.017 L 366.413 167.174 366.425 168.568 C 366.432 169.335,366.576 175.608,366.745 182.510 C 367.064 195.532,367.196 205.577,367.427 234.347 C 367.502 243.688,367.625 251.816,367.701 252.408 L 367.838 253.485 383.919 253.485 L 400.000 253.485 400.000 126.743 L 400.000 0.000 200.000 0.000 L 0.000 0.000 0.000 126.743 M207.661 1.204 C 207.875 1.448,208.249 2.047,208.491 2.535 C 208.733 3.023,209.160 3.673,209.440 3.979 C 210.544 5.187,210.085 6.167,207.927 7.210 C 207.122 7.599,206.236 8.119,205.957 8.365 C 205.678 8.612,205.183 8.895,204.856 8.994 C 204.529 9.094,203.754 9.517,203.134 9.936 C 202.514 10.354,201.241 11.123,200.306 11.643 C 196.166 13.948,195.760 14.380,195.171 17.110 C 194.888 18.426,195.230 21.326,195.746 21.978 C 195.878 22.146,196.185 22.659,196.427 23.119 C 199.477 28.907,199.867 29.238,201.780 27.666 C 202.265 27.267,202.918 26.860,203.232 26.761 C 203.546 26.663,203.802 26.475,203.802 26.345 C 203.802 26.215,203.921 26.109,204.067 26.109 C 204.212 26.109,205.585 25.425,207.118 24.588 C 210.476 22.756,210.719 22.731,211.436 24.144 C 211.737 24.737,212.253 25.544,212.582 25.938 C 213.578 27.129,212.707 29.087,210.989 29.518 C 210.623 29.610,209.968 29.951,209.534 30.277 C 209.100 30.602,208.118 31.182,207.351 31.565 C 206.584 31.947,205.634 32.531,205.240 32.860 C 204.846 33.190,204.380 33.460,204.204 33.460 C 203.747 33.460,203.303 34.569,203.478 35.272 C 203.739 36.315,207.301 41.946,208.050 42.500 C 210.367 44.213,213.595 44.916,215.120 44.039 C 215.420 43.867,216.789 43.048,218.162 42.220 C 219.535 41.391,221.390 40.331,222.283 39.864 C 223.177 39.396,224.204 38.820,224.566 38.582 C 227.817 36.446,228.097 36.475,229.579 39.091 C 231.129 41.827,231.113 41.984,229.159 43.267 C 228.257 43.860,227.202 44.414,226.814 44.499 C 226.426 44.584,226.109 44.765,226.109 44.900 C 226.109 45.035,225.738 45.301,225.285 45.491 C 224.832 45.680,224.176 46.054,223.828 46.322 C 223.479 46.590,222.248 47.310,221.092 47.921 C 219.936 48.532,218.795 49.207,218.557 49.421 C 218.319 49.635,217.017 50.362,215.664 51.038 C 214.311 51.713,213.071 52.426,212.908 52.622 C 212.745 52.818,212.470 52.978,212.297 52.978 C 212.124 52.978,211.710 53.193,211.377 53.455 C 208.420 55.780,206.969 55.263,205.207 51.255 C 204.944 50.656,204.593 50.086,204.427 49.988 C 204.261 49.890,203.881 49.297,203.583 48.669 C 202.972 47.385,201.906 45.491,200.317 42.863 C 199.000 40.684,198.271 39.424,197.694 38.328 C 197.452 37.869,197.131 37.343,196.979 37.161 C 196.828 36.978,196.410 36.277,196.052 35.603 C 195.693 34.929,195.020 33.800,194.556 33.095 C 194.091 32.389,193.522 31.413,193.290 30.925 C 192.699 29.681,191.834 28.117,190.648 26.149 C 190.088 25.221,189.392 23.920,189.100 23.257 C 188.808 22.595,188.468 22.053,188.345 22.053 C 188.221 22.053,188.040 21.797,187.942 21.483 C 187.844 21.169,187.452 20.456,187.072 19.899 C 186.691 19.341,186.074 18.314,185.699 17.617 C 185.325 16.920,184.738 15.894,184.395 15.336 L 183.771 14.322 184.788 13.400 C 185.347 12.893,186.176 12.298,186.629 12.078 C 187.082 11.858,187.966 11.332,188.593 10.910 C 189.221 10.487,189.896 10.141,190.094 10.141 C 190.292 10.140,190.634 9.977,190.855 9.780 C 191.198 9.471,192.702 8.566,195.184 7.176 C 195.532 6.980,196.502 6.431,197.338 5.954 C 198.175 5.478,199.487 4.741,200.253 4.316 C 201.020 3.892,202.617 2.930,203.802 2.180 C 206.096 0.727,207.035 0.489,207.661 1.204 M175.440 23.126 C 177.406 24.122,179.940 26.585,180.523 28.069 L 180.943 29.138 180.100 29.842 C 177.269 32.203,176.386 32.327,174.623 30.612 L 173.511 29.531 171.610 29.550 C 169.873 29.566,169.561 29.654,168.001 30.563 C 167.062 31.111,165.237 32.175,163.945 32.927 C 158.991 35.814,158.533 37.722,161.564 42.839 C 161.771 43.188,162.007 43.644,162.089 43.853 C 162.172 44.062,162.577 44.747,162.990 45.374 C 163.403 46.001,164.033 47.138,164.390 47.900 C 164.747 48.662,165.193 49.461,165.381 49.675 C 165.568 49.888,166.054 50.691,166.461 51.458 C 166.867 52.224,167.374 53.137,167.586 53.485 C 169.228 56.180,170.511 58.413,171.705 60.658 C 173.988 64.949,177.095 66.650,179.924 65.158 C 180.440 64.886,181.033 64.599,181.242 64.520 C 181.451 64.442,182.136 64.045,182.763 63.640 C 183.390 63.235,184.474 62.596,185.171 62.221 C 188.902 60.213,189.473 59.345,189.217 56.070 L 189.039 53.791 189.767 53.332 C 190.167 53.080,190.817 52.612,191.211 52.292 C 192.325 51.389,194.343 51.456,194.690 52.408 C 194.830 52.792,195.226 53.634,195.571 54.280 C 196.489 56.001,196.512 60.671,195.607 61.768 C 195.281 62.162,194.800 62.855,194.538 63.308 C 194.275 63.761,194.000 64.133,193.925 64.134 C 193.851 64.136,193.114 64.645,192.288 65.265 C 191.461 65.885,190.463 66.463,190.070 66.550 C 189.676 66.636,189.354 66.796,189.354 66.904 C 189.354 67.124,185.501 69.455,185.137 69.455 C 185.011 69.455,184.039 69.963,182.978 70.584 C 177.829 73.598,170.478 72.084,168.274 67.554 C 168.003 66.996,167.397 65.856,166.927 65.019 C 166.458 64.183,165.948 63.229,165.795 62.900 C 165.642 62.571,165.201 61.829,164.815 61.252 C 163.853 59.813,163.621 59.418,162.712 57.668 C 162.277 56.831,161.655 55.792,161.330 55.359 C 161.004 54.925,160.371 53.842,159.922 52.951 C 159.473 52.060,158.679 50.697,158.157 49.922 C 157.636 49.148,157.044 48.121,156.842 47.641 C 156.641 47.161,156.176 46.328,155.810 45.790 C 155.444 45.252,154.848 44.226,154.486 43.509 C 154.124 42.792,153.641 41.863,153.412 41.445 C 151.644 38.215,154.716 30.375,158.181 29.276 C 158.493 29.176,159.390 28.615,160.173 28.028 C 160.956 27.441,162.110 26.695,162.738 26.371 C 163.365 26.047,164.461 25.483,165.174 25.119 C 165.886 24.754,166.644 24.310,166.857 24.133 C 168.852 22.478,173.160 21.973,175.440 23.126 M133.550 45.048 C 134.111 45.711,142.367 54.248,149.176 61.206 C 150.849 62.915,153.808 66.013,155.752 68.089 C 157.696 70.165,160.269 72.833,161.471 74.018 C 164.169 76.679,166.540 79.266,166.540 79.550 C 166.540 79.781,164.199 81.365,163.843 81.374 C 163.723 81.378,163.340 81.603,162.991 81.876 C 162.217 82.481,160.374 82.557,159.896 82.004 C 158.962 80.921,157.427 79.308,153.444 75.222 C 148.748 70.405,148.406 70.187,147.035 71.147 C 146.702 71.380,145.451 72.077,144.254 72.695 C 138.176 75.834,137.922 76.188,139.202 79.721 C 139.556 80.697,140.042 82.237,140.283 83.143 C 140.523 84.049,140.934 85.532,141.195 86.439 C 141.456 87.345,141.914 88.942,142.213 89.987 C 143.109 93.122,142.907 94.008,141.191 94.460 C 140.843 94.552,140.235 94.895,139.841 95.222 C 138.351 96.460,136.629 96.100,136.629 94.550 C 136.629 94.138,136.343 93.044,135.995 92.118 C 135.646 91.192,135.361 90.071,135.361 89.628 C 135.361 89.184,135.246 88.707,135.106 88.566 C 134.966 88.426,134.697 87.747,134.509 87.058 C 133.391 82.966,130.739 73.812,130.547 73.384 C 130.422 73.105,130.180 72.193,130.010 71.356 C 129.840 70.520,129.549 69.527,129.363 69.151 C 129.176 68.774,129.024 68.278,129.024 68.048 C 129.024 67.819,128.869 67.271,128.679 66.832 C 128.350 66.070,127.408 62.862,126.471 59.316 C 126.231 58.409,125.608 56.242,125.087 54.499 C 123.234 48.312,123.202 48.456,126.869 46.516 C 127.845 45.999,128.990 45.316,129.412 44.998 C 130.885 43.888,132.586 43.909,133.550 45.048 M132.196 54.689 C 132.532 56.767,132.900 58.202,133.235 58.736 C 133.429 59.045,133.587 59.485,133.587 59.713 C 133.587 60.128,134.351 62.785,135.528 66.458 C 136.475 69.414,136.352 69.402,140.558 66.942 C 143.280 65.349,143.726 64.437,142.218 63.546 C 141.806 63.303,141.210 62.736,140.893 62.287 C 140.577 61.838,139.247 60.387,137.939 59.062 C 136.630 57.738,135.263 56.270,134.900 55.800 C 134.324 55.053,132.593 53.739,132.186 53.739 C 132.107 53.739,132.112 54.167,132.196 54.689 M288.847 86.084 C 287.871 86.572,286.793 87.247,286.453 87.584 L 285.833 88.196 286.692 89.408 C 287.164 90.075,288.359 91.591,289.347 92.776 C 290.336 93.961,291.483 95.387,291.897 95.944 C 292.310 96.502,292.731 96.995,292.831 97.040 C 292.931 97.085,293.444 97.712,293.972 98.434 C 294.499 99.155,295.473 100.373,296.136 101.140 C 296.799 101.907,297.785 103.048,298.328 103.676 C 298.871 104.303,300.382 105.994,301.686 107.433 C 304.921 111.005,304.948 111.067,303.665 111.961 C 303.103 112.353,302.400 112.874,302.105 113.119 C 301.810 113.363,301.134 113.680,300.605 113.823 C 300.075 113.965,299.565 114.206,299.471 114.357 C 298.825 115.402,292.782 112.953,292.037 111.343 C 291.891 111.030,291.623 110.773,291.441 110.773 C 291.258 110.773,290.543 110.192,289.851 109.482 C 286.397 105.938,277.983 99.873,276.521 99.873 C 274.933 99.873,269.708 94.847,269.708 93.320 C 269.708 93.160,269.608 93.029,269.485 93.029 C 269.159 93.029,267.493 89.537,267.209 88.257 C 267.075 87.653,266.901 87.096,266.824 87.018 C 266.660 86.854,263.540 88.105,261.597 89.112 C 259.120 90.397,258.302 90.879,258.302 91.054 C 258.302 91.165,258.154 91.255,257.974 91.255 C 257.452 91.255,255.607 93.303,255.006 94.550 C 254.703 95.177,254.294 95.994,254.097 96.364 C 253.900 96.734,253.739 97.318,253.739 97.663 C 253.739 98.007,253.571 98.764,253.366 99.346 C 253.161 99.927,252.923 100.997,252.839 101.722 C 252.311 106.230,250.015 111.030,246.809 114.323 C 245.222 115.953,244.639 116.713,244.811 116.931 C 244.945 117.099,245.200 117.687,245.377 118.237 C 245.554 118.788,245.965 119.700,246.289 120.265 C 246.613 120.830,247.056 121.665,247.272 122.120 C 247.782 123.194,250.612 125.951,251.408 126.151 C 252.315 126.379,256.729 126.019,257.914 125.622 C 258.476 125.433,259.677 125.196,260.583 125.095 C 261.489 124.994,262.355 124.811,262.508 124.689 C 262.924 124.354,268.929 123.630,269.549 123.841 C 269.846 123.942,271.058 124.105,272.243 124.204 C 276.690 124.577,278.580 126.087,278.580 129.266 C 278.580 131.735,278.208 131.955,276.550 130.464 C 274.616 128.725,272.493 128.467,273.971 130.151 C 274.403 130.643,274.772 131.419,274.873 132.049 C 274.967 132.636,275.215 133.377,275.425 133.698 C 276.193 134.870,274.301 135.525,273.087 134.507 C 272.693 134.176,271.999 133.825,271.546 133.726 C 271.093 133.627,270.722 133.442,270.722 133.313 C 270.722 132.967,267.500 133.030,266.927 133.388 C 266.540 133.630,266.250 133.630,265.582 133.388 C 265.113 133.218,264.527 133.080,264.279 133.080 C 264.031 133.080,263.450 132.901,262.989 132.681 C 262.083 132.252,260.696 132.747,258.267 134.367 C 255.239 136.386,254.319 137.048,253.866 137.535 C 252.848 138.629,249.365 139.061,247.584 138.315 C 246.465 137.846,244.024 135.854,240.558 132.581 C 235.781 128.070,235.958 128.125,234.764 130.794 C 234.338 131.749,233.869 132.603,233.724 132.693 C 233.579 132.783,233.460 133.066,233.460 133.322 C 233.460 133.578,232.495 135.653,231.315 137.933 C 230.135 140.213,228.868 142.686,228.499 143.428 C 228.131 144.170,227.670 144.838,227.476 144.912 C 227.282 144.987,227.123 145.191,227.123 145.367 C 227.123 145.542,226.910 145.958,226.651 146.290 C 226.391 146.623,226.090 147.180,225.981 147.529 C 225.872 147.877,225.585 148.301,225.344 148.471 C 224.214 149.267,224.705 150.067,227.250 151.578 C 234.681 155.991,239.140 160.453,239.822 164.157 C 239.974 164.979,240.230 165.813,240.391 166.009 C 240.792 166.495,240.797 174.435,240.397 174.930 C 240.239 175.125,240.031 175.684,239.934 176.172 C 239.838 176.660,239.583 177.459,239.368 177.947 C 238.757 179.331,237.048 182.796,236.495 183.773 C 236.220 184.259,235.995 184.913,235.995 185.226 C 235.995 185.540,235.666 187.024,235.263 188.526 C 234.861 190.027,234.457 191.825,234.367 192.522 C 234.277 193.219,234.048 194.189,233.858 194.677 C 233.527 195.531,233.228 197.003,232.673 200.507 C 232.530 201.413,232.250 202.896,232.052 203.802 C 230.985 208.689,231.434 216.442,232.867 217.875 C 233.409 218.417,235.311 218.347,236.436 217.744 C 236.956 217.465,237.569 217.237,237.798 217.237 C 238.027 217.237,238.350 217.073,238.516 216.873 C 238.682 216.673,239.181 216.430,239.625 216.334 C 240.068 216.238,240.488 216.079,240.558 215.980 C 240.627 215.881,241.357 215.485,242.180 215.099 C 243.002 214.714,243.801 214.298,243.954 214.176 C 244.108 214.054,244.918 213.368,245.754 212.651 C 246.591 211.935,247.560 211.165,247.909 210.941 C 248.257 210.716,248.833 210.267,249.189 209.941 C 249.837 209.348,250.530 208.906,251.711 208.333 C 253.047 207.684,258.281 207.896,259.522 208.648 C 260.854 209.456,263.118 211.588,263.118 212.034 C 263.118 212.213,263.289 212.501,263.498 212.674 C 264.156 213.220,264.037 219.778,263.344 221.166 L 262.810 222.235 260.394 222.380 C 258.103 222.516,257.942 222.564,257.267 223.302 C 256.876 223.731,256.438 224.081,256.293 224.081 C 256.149 224.081,255.430 224.684,254.695 225.421 C 252.819 227.303,250.623 228.686,249.271 228.838 C 248.661 228.907,248.162 229.045,248.162 229.146 C 248.162 229.246,247.392 229.641,246.451 230.024 C 244.417 230.851,242.863 231.632,242.312 232.104 C 242.092 232.292,241.787 232.446,241.634 232.446 C 241.481 232.446,240.520 232.996,239.499 233.668 C 238.478 234.340,236.844 235.261,235.868 235.715 C 234.892 236.168,233.766 236.717,233.365 236.934 C 232.197 237.566,229.117 237.520,228.221 236.858 C 226.944 235.913,224.588 231.038,224.588 229.340 C 224.588 229.093,224.479 228.692,224.345 228.450 C 224.211 228.208,223.800 226.986,223.432 225.735 C 223.064 224.484,222.603 223.232,222.408 222.954 C 222.213 222.675,222.053 222.317,222.053 222.157 C 222.053 221.841,220.157 218.938,218.982 217.454 C 218.580 216.946,218.251 216.408,218.251 216.259 C 218.251 216.110,218.041 215.875,217.785 215.738 C 217.300 215.478,214.415 211.956,212.888 209.759 C 212.135 208.675,211.300 207.196,210.333 205.232 C 209.795 204.140,209.120 201.613,208.906 199.894 C 208.570 197.187,207.623 195.942,207.608 198.187 C 207.593 200.554,206.937 200.832,200.971 201.000 C 198.229 201.077,195.891 201.236,195.775 201.352 C 195.506 201.621,195.648 214.458,195.971 219.138 C 196.106 221.090,196.285 229.617,196.370 238.086 L 196.523 253.485 236.896 253.485 L 277.269 253.485 277.422 227.186 C 277.507 212.722,277.577 200.032,277.579 198.986 C 277.581 197.940,277.689 195.602,277.821 193.790 C 278.240 188.007,278.219 168.605,277.793 168.179 C 277.505 167.891,276.289 167.813,271.729 167.788 C 264.403 167.747,263.719 167.287,263.429 162.195 C 263.154 157.379,264.169 154.880,266.399 154.880 C 269.372 154.880,270.722 154.596,270.722 153.970 C 270.722 152.805,271.710 152.069,273.489 151.907 C 274.546 151.811,275.265 151.604,275.558 151.311 C 275.942 150.927,276.503 150.860,279.426 150.849 C 281.306 150.842,283.364 150.720,283.998 150.578 C 284.825 150.392,285.332 150.401,285.788 150.609 C 286.238 150.814,286.518 150.820,286.748 150.629 C 287.162 150.286,289.345 150.765,290.234 151.394 C 290.965 151.911,292.659 151.985,292.953 151.512 C 293.650 150.392,294.420 150.158,297.121 150.246 C 298.565 150.293,299.918 150.318,300.127 150.301 C 302.035 150.146,302.726 150.284,303.430 150.958 C 303.840 151.351,304.583 151.729,305.115 151.816 C 305.962 151.953,306.091 152.075,306.291 152.923 L 306.517 153.875 312.130 153.807 L 317.744 153.739 317.795 134.601 C 317.823 124.075,317.914 114.265,317.999 112.801 C 318.294 107.650,318.332 107.079,318.513 105.006 C 318.614 103.856,318.600 102.915,318.482 102.915 C 318.061 102.915,315.962 103.768,315.569 104.099 C 315.349 104.284,315.064 104.436,314.936 104.435 C 314.807 104.435,313.985 104.739,313.109 105.111 C 311.066 105.978,310.660 105.800,308.398 103.042 C 306.412 100.621,305.084 99.076,304.065 98.003 C 303.651 97.568,302.785 96.584,302.141 95.817 C 301.202 94.701,299.432 92.777,297.406 90.673 C 294.874 88.043,291.456 85.159,290.900 85.183 C 290.747 85.190,289.823 85.595,288.847 86.084 M282.890 119.265 C 283.063 119.474,283.322 119.645,283.465 119.645 C 284.925 119.645,286.946 122.864,286.946 125.191 C 286.946 127.904,286.400 128.554,285.137 127.343 C 284.492 126.725,284.410 126.707,284.025 127.092 C 283.514 127.603,283.192 127.426,282.757 126.395 C 282.078 124.786,279.438 122.313,277.867 121.815 C 277.588 121.726,277.296 121.487,277.218 121.283 C 277.139 121.079,276.809 120.913,276.482 120.913 C 275.358 120.913,274.774 120.240,275.619 119.918 C 276.598 119.543,277.968 119.576,278.374 119.982 C 278.560 120.168,279.130 120.387,279.641 120.470 C 280.609 120.627,283.104 122.338,283.129 122.862 C 283.151 123.323,283.660 123.539,283.976 123.223 C 284.184 123.015,284.178 122.940,283.954 122.940 C 283.787 122.940,283.650 122.766,283.650 122.552 C 283.650 122.339,283.479 122.098,283.270 122.018 C 283.061 121.938,282.890 121.710,282.890 121.511 C 282.890 121.312,282.680 121.068,282.424 120.968 C 281.642 120.662,280.312 119.413,280.480 119.141 C 280.726 118.743,282.534 118.836,282.890 119.265 M284.216 124.208 C 284.216 124.696,284.268 124.895,284.332 124.651 C 284.396 124.407,284.396 124.008,284.332 123.764 C 284.268 123.520,284.216 123.720,284.216 124.208 M268.365 135.678 C 268.777 136.323,270.873 137.822,271.610 137.999 C 272.028 138.099,272.799 138.476,273.324 138.836 C 274.246 139.469,274.294 139.475,274.781 139.034 C 275.271 138.590,275.285 138.595,275.285 139.216 C 275.285 139.802,275.169 139.868,273.862 140.021 C 272.440 140.189,269.202 139.404,269.202 138.893 C 269.202 138.782,268.982 138.621,268.715 138.536 C 268.083 138.336,267.109 136.470,267.308 135.843 C 267.482 135.296,268.062 135.205,268.365 135.678 M266.718 138.466 C 268.328 140.038,268.998 140.499,270.279 140.919 C 271.374 141.278,271.453 141.513,270.666 142.064 C 269.158 143.120,266.733 142.110,265.152 139.767 C 263.404 137.177,264.480 136.283,266.718 138.466 M337.643 167.233 C 334.227 167.272,321.850 167.401,310.139 167.518 C 298.428 167.636,288.661 167.813,288.434 167.911 C 287.388 168.367,286.793 186.841,286.534 226.933 L 286.363 253.485 322.407 253.485 L 358.451 253.485 358.298 226.299 C 358.213 211.347,358.044 198.143,357.923 196.958 C 357.801 195.773,357.692 192.750,357.681 190.241 C 357.647 182.578,357.150 170.304,356.810 168.695 L 356.487 167.174 350.170 167.167 C 346.696 167.163,341.058 167.193,337.643 167.233 M207.962 184.886 C 207.881 185.098,207.995 185.893,208.216 186.654 C 208.438 187.415,208.634 188.761,208.652 189.646 L 208.686 191.255 208.943 189.227 C 209.398 185.638,209.344 184.677,208.681 184.583 C 208.345 184.535,208.048 184.660,207.962 184.886 M163.498 201.562 C 149.904 201.842,151.077 201.532,151.077 204.851 C 151.077 205.533,150.973 206.289,150.845 206.531 C 150.539 207.112,149.783 229.544,149.620 242.902 L 149.490 253.485 168.442 253.485 L 187.394 253.485 187.211 238.593 C 186.972 219.106,186.456 205.320,185.854 202.281 L 185.678 201.394 179.848 201.370 C 176.641 201.357,169.284 201.443,163.498 201.562 " stroke="none" fill="#4b9cb4" fill-rule="evenodd"></path><path id="path2" d="M276.172 31.110 C 272.856 31.375,268.973 32.085,265.943 32.983 C 265.057 33.245,264.030 33.464,263.662 33.468 C 263.293 33.473,262.770 33.644,262.499 33.848 C 262.228 34.053,261.772 34.220,261.485 34.219 C 261.198 34.219,259.994 34.510,258.809 34.867 C 253.943 36.333,250.779 37.344,250.025 37.674 C 249.586 37.866,249.053 38.023,248.842 38.023 C 248.630 38.023,247.624 38.422,246.606 38.910 C 245.588 39.398,244.633 39.797,244.486 39.797 C 243.276 39.797,240.461 41.907,236.768 45.579 C 233.294 49.033,225.119 56.274,224.692 56.274 C 224.605 56.274,224.119 56.603,223.611 57.005 C 223.103 57.406,222.117 58.048,221.420 58.430 C 217.891 60.364,214.414 62.497,210.842 64.920 C 208.865 66.260,202.379 70.549,201.494 71.102 C 200.702 71.596,198.819 72.839,195.303 75.189 C 193.346 76.497,191.621 77.567,191.468 77.567 C 191.315 77.567,191.045 77.742,190.867 77.956 C 190.480 78.423,186.390 81.115,186.069 81.115 C 185.945 81.115,185.520 81.372,185.125 81.686 C 184.244 82.385,183.733 82.706,182.218 83.512 C 181.570 83.857,180.543 84.472,179.937 84.878 C 179.330 85.285,178.232 85.944,177.497 86.345 C 176.762 86.745,175.735 87.327,175.216 87.639 C 172.760 89.112,170.028 90.172,167.554 90.612 C 166.508 90.797,164.740 91.201,163.625 91.508 C 162.510 91.815,161.114 92.165,160.523 92.286 C 159.362 92.523,154.154 94.258,153.739 94.545 C 153.599 94.642,152.744 94.986,151.838 95.310 C 143.451 98.306,138.345 102.399,135.185 108.658 C 134.515 109.984,133.773 111.431,133.536 111.872 C 133.298 112.313,133.099 112.922,133.092 113.225 C 133.085 113.528,132.766 114.149,132.383 114.604 C 131.359 115.821,131.400 118.361,132.496 121.673 C 132.934 122.997,133.415 124.756,133.566 125.580 C 133.716 126.405,134.169 128.059,134.573 129.256 C 134.978 130.453,135.441 132.449,135.603 133.693 C 135.766 134.936,136.110 136.590,136.369 137.368 C 136.829 138.753,137.064 139.763,137.638 142.839 C 137.795 143.676,138.097 145.101,138.310 146.008 C 138.523 146.914,138.847 148.625,139.030 149.810 C 139.213 150.995,139.489 152.286,139.643 152.678 C 139.798 153.071,139.926 153.812,139.929 154.326 C 139.932 154.839,140.164 156.286,140.444 157.541 C 140.724 158.796,141.234 161.876,141.578 164.385 C 141.923 166.895,142.312 169.461,142.444 170.089 C 142.940 172.451,143.252 174.607,143.468 177.186 C 143.712 180.087,144.295 182.680,144.822 183.206 C 145.097 183.482,146.896 183.488,155.024 183.245 C 163.673 182.986,191.459 183.079,204.508 183.410 C 210.493 183.561,211.218 184.472,209.639 189.859 C 208.746 192.905,209.431 200.220,211.051 204.943 C 211.764 207.021,214.775 211.395,217.237 213.928 C 219.952 216.722,224.081 223.318,224.081 224.860 C 224.081 225.111,224.205 225.637,224.357 226.029 C 224.610 226.681,225.240 228.861,225.859 231.224 C 225.993 231.736,226.504 232.839,226.993 233.674 C 227.483 234.510,227.883 235.295,227.883 235.421 C 227.883 236.976,233.183 236.908,235.001 235.329 C 235.221 235.137,235.498 234.981,235.617 234.981 C 235.736 234.981,236.525 234.545,237.371 234.012 C 242.302 230.908,246.463 228.848,248.449 228.527 C 249.347 228.382,253.135 226.042,253.959 225.123 C 254.187 224.869,255.024 224.063,255.820 223.331 L 257.267 222.000 259.749 221.874 C 261.114 221.804,262.276 221.704,262.332 221.651 C 263.316 220.716,263.846 214.632,263.022 213.722 C 262.796 213.472,262.611 213.078,262.611 212.845 C 262.611 212.190,260.098 209.891,258.638 209.211 C 255.895 207.932,252.472 208.359,250.190 210.266 C 249.606 210.754,249.053 211.153,248.962 211.153 C 248.871 211.154,248.112 211.788,247.275 212.564 C 245.951 213.792,241.954 216.477,241.450 216.477 C 241.299 216.477,239.455 217.236,235.543 218.909 C 230.819 220.929,228.981 212.225,231.825 201.305 C 232.027 200.528,232.192 199.490,232.191 198.996 C 232.191 198.503,232.356 197.586,232.559 196.958 C 232.899 195.909,233.178 194.600,234.100 189.734 C 234.538 187.423,235.151 185.048,235.474 184.411 C 235.615 184.132,235.847 183.619,235.989 183.270 C 236.131 182.921,236.348 182.465,236.472 182.256 C 236.596 182.047,237.118 180.963,237.632 179.848 C 238.147 178.733,238.736 177.487,238.942 177.079 C 239.354 176.264,240.020 173.030,240.225 170.849 C 240.357 169.437,239.475 164.392,239.008 163.891 C 238.884 163.759,238.783 163.485,238.783 163.284 C 238.783 162.199,233.970 156.853,232.314 156.098 C 231.968 155.941,231.686 155.730,231.686 155.629 C 231.686 155.385,227.374 152.459,226.701 152.245 C 226.412 152.153,225.972 151.853,225.723 151.578 C 225.474 151.303,225.136 151.077,224.973 151.077 C 223.553 151.077,223.387 149.363,224.678 148.029 C 225.147 147.545,225.619 146.863,225.727 146.515 C 225.835 146.166,226.007 145.824,226.109 145.754 C 226.211 145.684,226.566 145.134,226.899 144.531 C 227.231 143.928,227.811 142.902,228.187 142.250 C 228.840 141.120,233.061 132.665,233.905 130.798 C 235.657 126.924,235.748 126.914,239.191 130.225 C 242.875 133.768,246.061 136.499,247.973 137.751 C 249.133 138.512,251.723 138.224,252.787 137.218 C 253.241 136.788,253.882 136.297,254.213 136.127 C 254.543 135.957,255.456 135.345,256.243 134.766 C 260.031 131.977,262.492 131.151,264.167 132.105 C 264.577 132.339,265.725 132.446,267.807 132.446 C 270.707 132.446,270.930 132.484,272.571 133.262 C 273.982 133.930,274.319 134.010,274.436 133.705 C 274.616 133.237,273.878 131.346,273.254 130.672 C 270.598 127.806,273.538 126.891,276.800 129.568 C 277.905 130.475,278.074 130.473,278.074 129.552 C 278.074 127.778,276.303 125.475,274.940 125.475 C 274.698 125.475,274.184 125.312,273.799 125.113 C 272.870 124.632,267.420 124.339,265.906 124.687 C 265.279 124.832,263.796 125.183,262.611 125.467 C 256.700 126.884,251.753 127.373,250.317 126.681 C 249.589 126.330,247.197 123.751,247.001 123.106 C 246.909 122.806,246.688 122.389,246.509 122.180 C 245.967 121.548,244.112 117.709,243.945 116.874 C 243.803 116.161,243.959 115.924,245.786 114.088 C 248.233 111.627,249.299 110.328,249.547 109.502 C 249.651 109.156,249.896 108.618,250.091 108.308 C 250.385 107.842,251.336 104.429,253.254 96.958 C 253.397 96.401,253.622 95.836,253.753 95.703 C 253.885 95.571,253.992 95.284,253.992 95.066 C 253.992 93.292,256.865 90.532,260.456 88.854 C 261.293 88.464,262.148 88.045,262.357 87.925 C 265.273 86.242,266.847 85.975,267.388 87.072 C 267.594 87.490,267.859 88.004,267.977 88.213 C 268.094 88.422,268.261 88.764,268.347 88.973 C 268.974 90.496,270.637 93.697,270.881 93.852 C 271.045 93.956,271.470 94.536,271.825 95.141 C 272.661 96.568,274.539 97.987,277.693 99.574 C 282.860 102.175,284.994 103.785,291.606 110.076 C 292.449 110.878,293.216 111.534,293.312 111.534 C 293.407 111.534,294.068 111.926,294.781 112.406 C 297.099 113.966,299.147 113.924,301.631 112.265 C 303.614 110.941,303.599 110.854,300.859 107.853 C 298.867 105.672,296.708 103.134,293.670 99.404 C 293.255 98.895,292.111 97.510,291.127 96.324 C 290.143 95.139,289.142 93.885,288.904 93.536 C 288.666 93.188,287.673 91.933,286.697 90.748 C 284.293 87.829,284.387 87.509,288.256 85.447 C 290.600 84.198,291.190 84.168,292.730 85.224 C 294.592 86.500,302.444 94.587,306.132 99.026 C 311.286 105.231,310.919 104.932,312.654 104.336 C 314.416 103.731,315.502 103.266,316.923 102.511 C 317.667 102.115,318.323 101.930,318.634 102.029 C 318.921 102.120,319.138 102.073,319.138 101.920 C 319.138 101.772,319.653 101.129,320.281 100.491 C 320.910 99.853,321.595 99.002,321.803 98.600 C 322.072 98.080,322.439 97.820,323.070 97.701 C 323.852 97.555,323.952 97.450,323.904 96.828 C 323.875 96.439,324.006 95.934,324.195 95.706 C 324.641 95.169,324.385 87.237,323.856 85.167 C 323.660 84.402,323.417 83.268,323.316 82.646 C 323.214 82.024,323.040 81.340,322.929 81.125 C 322.817 80.911,322.305 79.880,321.789 78.834 C 321.274 77.788,320.598 76.591,320.286 76.172 C 319.975 75.754,319.543 75.070,319.327 74.651 C 318.894 73.814,316.896 71.556,314.262 68.929 C 312.647 67.319,310.520 63.756,310.520 62.663 C 310.520 62.467,310.353 61.948,310.148 61.509 C 309.944 61.069,309.670 60.253,309.538 59.696 C 309.407 59.138,309.045 57.769,308.735 56.654 C 308.424 55.539,307.979 53.915,307.745 53.047 C 307.511 52.178,307.241 51.389,307.145 51.294 C 307.049 51.198,306.971 50.812,306.971 50.435 C 306.971 47.947,302.779 43.013,299.046 41.108 C 298.316 40.736,297.091 39.999,296.324 39.470 C 292.985 37.169,292.375 36.739,292.025 36.439 C 291.820 36.265,291.464 36.008,291.231 35.868 C 290.999 35.729,290.173 35.130,289.395 34.537 C 288.617 33.945,287.908 33.460,287.819 33.460 C 287.730 33.460,287.355 33.247,286.985 32.986 C 285.473 31.920,279.343 30.857,276.172 31.110 M288.754 53.583 C 292.042 54.758,294.677 60.558,292.782 62.452 C 292.639 62.595,292.522 62.930,292.522 63.197 C 292.522 63.617,291.185 65.129,289.961 66.093 C 288.480 67.260,283.660 66.868,281.884 65.437 C 275.999 60.696,281.602 51.028,288.754 53.583 M126.310 126.621 C 125.383 127.092,111.844 140.826,105.201 148.035 C 103.595 149.777,101.750 151.774,101.100 152.471 C 98.635 155.116,95.976 158.090,95.093 159.189 C 94.589 159.816,93.372 161.299,92.389 162.484 C 91.406 163.669,89.761 165.722,88.733 167.047 C 87.705 168.371,86.655 169.659,86.398 169.908 C 86.141 170.158,85.932 170.466,85.932 170.592 C 85.932 170.860,83.896 173.603,81.496 176.569 C 81.077 177.086,80.621 177.706,80.482 177.947 C 80.342 178.188,79.658 179.040,78.961 179.840 C 78.264 180.640,77.586 181.482,77.455 181.712 C 77.325 181.941,76.598 182.871,75.841 183.777 C 74.106 185.853,73.839 186.182,72.750 187.579 C 72.262 188.206,71.692 188.937,71.483 189.204 C 71.012 189.804,68.651 192.552,67.869 193.409 C 67.551 193.758,66.953 194.499,66.540 195.057 C 66.127 195.615,65.559 196.317,65.277 196.617 C 64.996 196.918,64.594 197.371,64.385 197.623 C 52.803 211.612,45.851 218.377,39.625 221.717 C 35.007 224.194,25.634 228.644,25.035 228.644 C 24.851 228.644,24.476 228.800,24.201 228.990 C 23.926 229.180,23.416 229.420,23.067 229.523 C 22.719 229.626,21.920 229.942,21.293 230.225 C 20.665 230.509,19.924 230.831,19.645 230.942 C 12.140 233.922,10.894 234.682,11.246 236.069 C 11.679 237.773,15.429 237.930,23.828 236.595 C 25.152 236.384,27.205 236.060,28.390 235.873 C 29.575 235.687,30.866 235.410,31.259 235.258 C 31.651 235.106,32.280 234.981,32.657 234.981 C 33.033 234.981,34.822 234.648,36.632 234.241 C 38.443 233.834,40.815 233.378,41.905 233.227 C 42.994 233.077,44.093 232.843,44.347 232.707 C 44.600 232.571,45.648 232.331,46.675 232.173 C 47.702 232.015,48.657 231.797,48.796 231.689 C 48.935 231.580,49.563 231.372,50.190 231.228 C 51.386 230.952,55.920 229.532,58.302 228.687 C 60.839 227.787,68.433 224.126,69.221 223.424 C 69.442 223.228,69.739 223.067,69.882 223.067 C 70.025 223.067,70.666 222.667,71.306 222.179 C 71.946 221.690,72.732 221.178,73.053 221.041 C 73.375 220.903,73.977 220.533,74.391 220.218 C 74.806 219.903,76.175 218.874,77.433 217.932 C 80.968 215.286,82.934 213.757,83.904 212.900 C 85.823 211.204,91.557 207.207,98.606 202.649 C 99.842 201.850,99.759 201.898,102.915 200.126 C 104.100 199.461,105.659 198.533,106.380 198.064 C 107.101 197.595,107.753 197.212,107.829 197.212 C 107.905 197.212,109.088 196.600,110.458 195.851 C 117.057 192.247,128.381 186.819,129.299 186.819 C 129.814 186.819,130.292 186.111,130.292 185.347 C 130.292 184.801,130.745 184.689,134.177 184.386 C 137.027 184.134,136.962 184.555,135.755 174.018 C 135.547 172.205,135.374 170.176,135.369 169.508 C 135.365 168.840,135.087 166.901,134.752 165.199 C 134.418 163.496,133.956 160.575,133.727 158.707 C 133.498 156.839,133.201 155.107,133.068 154.858 C 132.935 154.609,132.826 153.978,132.826 153.455 C 132.826 152.933,132.660 151.870,132.456 151.094 C 132.252 150.318,131.785 148.143,131.417 146.261 C 129.852 138.260,129.580 136.973,129.309 136.295 C 129.152 135.903,129.024 135.317,129.024 134.994 C 129.024 134.670,128.866 133.851,128.673 133.172 C 128.480 132.494,128.134 131.198,127.904 130.292 C 126.852 126.137,126.926 126.309,126.310 126.621 " stroke="none" fill="#92e1a3" fill-rule="evenodd"></path><path id="path3" d="M203.802 2.180 C 202.617 2.930,201.020 3.892,200.253 4.316 C 199.487 4.741,198.175 5.478,197.338 5.954 C 196.502 6.431,195.532 6.980,195.184 7.176 C 192.702 8.566,191.198 9.471,190.855 9.780 C 190.634 9.977,190.292 10.140,190.094 10.141 C 189.896 10.141,189.221 10.487,188.593 10.910 C 187.966 11.332,187.082 11.858,186.629 12.078 C 186.176 12.298,185.347 12.893,184.788 13.400 L 183.771 14.322 184.395 15.336 C 184.738 15.894,185.325 16.920,185.699 17.617 C 186.074 18.314,186.691 19.341,187.072 19.899 C 187.452 20.456,187.844 21.169,187.942 21.483 C 188.040 21.797,188.221 22.053,188.345 22.053 C 188.468 22.053,188.808 22.595,189.100 23.257 C 189.392 23.920,190.088 25.221,190.648 26.149 C 191.834 28.117,192.699 29.681,193.290 30.925 C 193.522 31.413,194.091 32.389,194.556 33.095 C 195.020 33.800,195.693 34.929,196.052 35.603 C 196.410 36.277,196.828 36.978,196.979 37.161 C 197.131 37.343,197.452 37.869,197.694 38.328 C 198.271 39.424,199.000 40.684,200.317 42.863 C 201.906 45.491,202.972 47.385,203.583 48.669 C 203.881 49.297,204.261 49.890,204.427 49.988 C 204.593 50.086,204.944 50.656,205.207 51.255 C 206.969 55.263,208.420 55.780,211.377 53.455 C 211.710 53.193,212.124 52.978,212.297 52.978 C 212.470 52.978,212.745 52.818,212.908 52.622 C 213.071 52.426,214.311 51.713,215.664 51.038 C 217.017 50.362,218.319 49.635,218.557 49.421 C 218.795 49.207,219.936 48.532,221.092 47.921 C 222.248 47.310,223.479 46.590,223.828 46.322 C 224.176 46.054,224.832 45.680,225.285 45.491 C 225.738 45.301,226.109 45.035,226.109 44.900 C 226.109 44.765,226.426 44.584,226.814 44.499 C 227.202 44.414,228.257 43.860,229.159 43.267 C 231.113 41.984,231.129 41.827,229.579 39.091 C 228.097 36.475,227.817 36.446,224.566 38.582 C 224.204 38.820,223.177 39.396,222.283 39.864 C 221.390 40.331,219.535 41.391,218.162 42.220 C 216.789 43.048,215.420 43.867,215.120 44.039 C 213.595 44.916,210.367 44.213,208.050 42.500 C 207.301 41.946,203.739 36.315,203.478 35.272 C 203.303 34.569,203.747 33.460,204.204 33.460 C 204.380 33.460,204.846 33.190,205.240 32.860 C 205.634 32.531,206.584 31.947,207.351 31.565 C 208.118 31.182,209.100 30.602,209.534 30.277 C 209.968 29.951,210.623 29.610,210.989 29.518 C 212.707 29.087,213.578 27.129,212.582 25.938 C 212.253 25.544,211.737 24.737,211.436 24.144 C 210.719 22.731,210.476 22.756,207.118 24.588 C 205.585 25.425,204.212 26.109,204.067 26.109 C 203.921 26.109,203.802 26.215,203.802 26.345 C 203.802 26.475,203.546 26.663,203.232 26.761 C 202.918 26.860,202.265 27.267,201.780 27.666 C 199.867 29.238,199.477 28.907,196.427 23.119 C 196.185 22.659,195.878 22.146,195.746 21.978 C 195.230 21.326,194.888 18.426,195.171 17.110 C 195.760 14.380,196.166 13.948,200.306 11.643 C 201.241 11.123,202.514 10.354,203.134 9.936 C 203.754 9.517,204.529 9.094,204.856 8.994 C 205.183 8.895,205.678 8.612,205.957 8.365 C 206.236 8.119,207.122 7.599,207.927 7.210 C 210.085 6.167,210.544 5.187,209.440 3.979 C 209.160 3.673,208.733 3.023,208.491 2.535 C 207.401 0.339,206.781 0.292,203.802 2.180 M169.364 23.064 C 168.199 23.475,167.071 23.956,166.857 24.133 C 166.644 24.310,165.886 24.754,165.174 25.119 C 164.461 25.483,163.365 26.047,162.738 26.371 C 162.110 26.695,160.956 27.441,160.173 28.028 C 159.390 28.615,158.493 29.176,158.181 29.276 C 154.716 30.375,151.644 38.215,153.412 41.445 C 153.641 41.863,154.124 42.792,154.486 43.509 C 154.848 44.226,155.444 45.252,155.810 45.790 C 156.176 46.328,156.641 47.161,156.842 47.641 C 157.044 48.121,157.636 49.148,158.157 49.922 C 158.679 50.697,159.473 52.060,159.922 52.951 C 160.371 53.842,161.004 54.925,161.330 55.359 C 161.655 55.792,162.277 56.831,162.712 57.668 C 163.621 59.418,163.853 59.813,164.815 61.252 C 165.201 61.829,165.642 62.571,165.795 62.900 C 165.948 63.229,166.458 64.183,166.927 65.019 C 167.397 65.856,168.003 66.996,168.274 67.554 C 170.478 72.084,177.829 73.598,182.978 70.584 C 184.039 69.963,185.011 69.455,185.137 69.455 C 185.501 69.455,189.354 67.124,189.354 66.904 C 189.354 66.796,189.676 66.636,190.070 66.550 C 190.463 66.463,191.461 65.885,192.288 65.265 C 193.114 64.645,193.851 64.136,193.925 64.134 C 194.000 64.133,194.275 63.761,194.538 63.308 C 194.800 62.855,195.281 62.162,195.607 61.768 C 196.512 60.671,196.489 56.001,195.571 54.280 C 195.226 53.634,194.830 52.792,194.690 52.408 C 194.343 51.456,192.325 51.389,191.211 52.292 C 190.817 52.612,190.167 53.080,189.767 53.332 L 189.039 53.791 189.217 56.070 C 189.473 59.345,188.902 60.213,185.171 62.221 C 184.474 62.596,183.390 63.235,182.763 63.640 C 182.136 64.045,181.451 64.442,181.242 64.520 C 181.033 64.599,180.440 64.886,179.924 65.158 C 177.095 66.650,173.988 64.949,171.705 60.658 C 170.511 58.413,169.228 56.180,167.586 53.485 C 167.374 53.137,166.867 52.224,166.461 51.458 C 166.054 50.691,165.568 49.888,165.381 49.675 C 165.193 49.461,164.747 48.662,164.390 47.900 C 164.033 47.138,163.403 46.001,162.990 45.374 C 162.577 44.747,162.172 44.062,162.089 43.853 C 162.007 43.644,161.771 43.188,161.564 42.839 C 158.533 37.722,158.991 35.814,163.945 32.927 C 165.237 32.175,167.062 31.111,168.001 30.563 C 169.561 29.654,169.873 29.566,171.610 29.550 L 173.511 29.531 174.623 30.612 C 176.386 32.327,177.269 32.203,180.100 29.842 L 180.943 29.138 180.523 28.069 C 179.940 26.585,177.406 24.122,175.440 23.126 C 173.386 22.087,172.169 22.075,169.364 23.064 M130.680 44.281 C 130.406 44.356,129.835 44.679,129.412 44.998 C 128.990 45.316,127.845 45.999,126.869 46.516 C 123.202 48.456,123.234 48.312,125.087 54.499 C 125.608 56.242,126.231 58.409,126.471 59.316 C 127.408 62.862,128.350 66.070,128.679 66.832 C 128.869 67.271,129.024 67.819,129.024 68.048 C 129.024 68.278,129.176 68.774,129.363 69.151 C 129.549 69.527,129.840 70.520,130.010 71.356 C 130.180 72.193,130.422 73.105,130.547 73.384 C 130.739 73.812,133.391 82.966,134.509 87.058 C 134.697 87.747,134.966 88.426,135.106 88.566 C 135.246 88.707,135.361 89.184,135.361 89.628 C 135.361 90.071,135.646 91.192,135.995 92.118 C 136.343 93.044,136.629 94.138,136.629 94.550 C 136.629 96.100,138.351 96.460,139.841 95.222 C 140.235 94.895,140.843 94.552,141.191 94.460 C 142.907 94.008,143.109 93.122,142.213 89.987 C 141.914 88.942,141.456 87.345,141.195 86.439 C 140.934 85.532,140.523 84.049,140.283 83.143 C 140.042 82.237,139.556 80.697,139.202 79.721 C 137.922 76.188,138.176 75.834,144.254 72.695 C 145.451 72.077,146.702 71.380,147.035 71.147 C 148.406 70.187,148.748 70.405,153.444 75.222 C 157.427 79.308,158.962 80.921,159.896 82.004 C 160.374 82.557,162.217 82.481,162.991 81.876 C 163.340 81.603,163.723 81.378,163.843 81.374 C 164.199 81.365,166.540 79.781,166.540 79.550 C 166.540 79.266,164.169 76.679,161.471 74.018 C 160.269 72.833,157.696 70.165,155.752 68.089 C 153.808 66.013,150.849 62.915,149.176 61.206 C 142.367 54.248,134.111 45.711,133.550 45.048 C 132.943 44.331,131.701 43.999,130.680 44.281 M133.285 54.342 C 133.811 54.674,134.537 55.330,134.900 55.800 C 135.263 56.270,136.630 57.738,137.939 59.062 C 139.247 60.387,140.577 61.838,140.893 62.287 C 141.210 62.736,141.806 63.303,142.218 63.546 C 143.726 64.437,143.280 65.349,140.558 66.942 C 136.352 69.402,136.475 69.414,135.528 66.458 C 134.351 62.785,133.587 60.128,133.587 59.713 C 133.587 59.485,133.429 59.045,133.235 58.736 C 132.758 57.975,131.869 53.739,132.186 53.739 C 132.265 53.739,132.759 54.010,133.285 54.342 " stroke="none" fill="#2bd0d4" fill-rule="evenodd"></path><path id="path4" d="M274.525 30.430 C 271.977 30.622,269.694 31.038,267.427 31.721 C 264.606 32.571,263.322 32.921,260.963 33.482 C 259.708 33.780,258.226 34.167,257.668 34.342 C 257.110 34.517,255.741 34.918,254.626 35.233 C 253.511 35.548,252.313 35.953,251.965 36.134 C 251.214 36.522,249.258 37.183,247.629 37.598 C 246.987 37.762,246.303 38.025,246.108 38.184 C 245.913 38.342,245.396 38.548,244.958 38.641 C 244.520 38.735,243.632 39.147,242.984 39.558 C 242.337 39.968,241.732 40.304,241.640 40.304 C 241.135 40.304,239.041 42.109,235.759 45.374 C 233.727 47.395,230.935 50.019,229.556 51.204 C 228.177 52.389,226.656 53.729,226.177 54.183 C 225.697 54.636,225.211 55.006,225.096 55.006 C 224.981 55.006,224.302 55.469,223.587 56.034 C 221.968 57.314,219.441 58.809,218.897 58.809 C 218.673 58.809,218.423 58.980,218.343 59.189 C 218.262 59.398,218.079 59.569,217.935 59.569 C 217.791 59.569,216.721 60.196,215.556 60.963 C 214.392 61.730,213.335 62.357,213.206 62.357 C 213.078 62.357,212.396 62.814,211.691 63.371 C 210.985 63.929,210.237 64.385,210.029 64.385 C 209.821 64.385,209.275 64.704,208.817 65.094 C 208.047 65.749,207.118 66.421,206.113 67.050 C 205.888 67.191,204.354 68.218,202.705 69.332 C 201.056 70.445,199.179 71.661,198.534 72.034 C 197.888 72.407,197.241 72.863,197.096 73.048 C 196.950 73.233,196.375 73.634,195.817 73.939 C 194.498 74.661,190.611 77.169,190.086 77.639 C 189.861 77.839,189.291 78.218,188.818 78.481 C 188.346 78.743,186.876 79.656,185.551 80.510 C 184.227 81.363,182.643 82.333,182.032 82.666 C 180.378 83.565,180.022 83.784,179.533 84.206 C 179.288 84.418,178.546 84.856,177.883 85.179 C 177.221 85.503,176.679 85.839,176.679 85.926 C 176.679 86.012,176.280 86.228,175.792 86.404 C 175.304 86.580,174.905 86.819,174.905 86.934 C 174.905 87.050,174.633 87.212,174.300 87.296 C 173.967 87.379,173.026 87.820,172.208 88.275 C 170.740 89.092,168.250 89.839,166.033 90.126 C 164.667 90.303,159.899 91.611,157.288 92.525 C 154.597 93.467,154.198 93.591,152.655 93.960 C 151.779 94.170,150.753 94.599,150.373 94.914 C 149.994 95.229,149.391 95.558,149.034 95.645 C 148.402 95.799,146.403 96.698,144.867 97.519 C 143.939 98.015,140.320 100.515,139.474 101.244 C 138.460 102.118,135.918 105.631,135.087 107.306 C 134.660 108.167,134.165 109.043,133.987 109.252 C 133.809 109.461,133.577 109.861,133.471 110.139 L 133.279 110.646 133.070 110.139 C 132.956 109.861,132.854 109.325,132.844 108.950 C 132.834 108.575,132.725 108.206,132.601 108.129 C 132.477 108.052,132.303 107.675,132.214 107.290 C 131.805 105.521,130.908 103.023,130.615 102.839 C 130.437 102.728,130.292 102.254,130.292 101.786 C 130.292 100.982,128.833 96.900,127.254 93.283 C 126.858 92.376,126.197 90.837,125.786 89.861 C 124.509 86.832,123.621 86.528,120.406 88.021 C 119.499 88.442,117.874 89.166,116.793 89.631 C 115.712 90.096,114.685 90.589,114.511 90.727 C 112.455 92.364,112.420 92.418,112.434 93.897 C 112.442 94.675,112.584 95.449,112.751 95.615 C 112.918 95.782,113.054 96.124,113.054 96.374 C 113.054 96.625,113.267 97.486,113.528 98.288 C 113.788 99.090,114.312 100.773,114.693 102.028 C 115.533 104.797,116.094 106.391,117.279 109.379 C 117.776 110.634,118.409 112.231,118.686 112.928 C 118.962 113.625,119.505 114.880,119.891 115.716 C 120.278 116.553,120.801 117.730,121.054 118.333 C 121.600 119.635,122.255 120.152,123.359 120.152 C 124.383 120.152,124.906 120.669,125.101 121.871 C 125.185 122.390,125.418 123.274,125.618 123.836 C 125.818 124.398,125.982 124.991,125.982 125.152 C 125.982 125.314,123.501 127.945,120.469 130.999 C 117.437 134.053,113.359 138.234,111.407 140.289 C 109.455 142.345,107.174 144.729,106.337 145.588 C 105.501 146.446,103.790 148.280,102.535 149.664 C 100.029 152.426,99.353 153.105,99.108 153.105 C 99.018 153.105,98.783 153.412,98.585 153.786 C 98.221 154.477,97.519 155.314,95.120 157.917 C 94.388 158.711,93.786 159.465,93.782 159.592 C 93.777 159.719,93.364 160.222,92.864 160.710 C 92.364 161.198,91.141 162.664,90.147 163.969 C 89.153 165.273,87.969 166.813,87.516 167.391 C 87.063 167.968,86.614 168.612,86.519 168.821 C 86.423 169.030,86.138 169.351,85.885 169.533 C 85.632 169.715,85.425 169.986,85.425 170.136 C 85.425 170.285,85.075 170.820,84.648 171.325 C 84.221 171.830,82.905 173.498,81.724 175.032 C 78.098 179.743,70.366 189.177,69.488 189.963 C 69.191 190.229,68.948 190.562,68.948 190.704 C 68.948 190.846,68.404 191.598,67.740 192.376 C 67.075 193.153,66.193 194.245,65.779 194.801 C 65.366 195.357,64.626 196.229,64.136 196.737 C 63.078 197.835,62.533 198.473,61.343 200.001 C 60.277 201.371,58.232 203.615,57.098 204.658 C 56.644 205.075,56.274 205.554,56.274 205.723 C 56.274 206.088,54.667 207.828,49.546 213.009 C 46.026 216.570,44.653 217.678,40.772 220.094 C 38.570 221.464,29.298 226.109,28.764 226.109 C 28.697 226.109,28.050 226.394,27.328 226.743 C 26.605 227.091,25.878 227.376,25.712 227.376 C 25.546 227.376,25.270 227.546,25.099 227.752 C 24.927 227.959,24.428 228.238,23.990 228.372 C 21.869 229.022,19.214 230.096,16.096 231.564 C 15.678 231.760,14.542 232.215,13.572 232.573 C 9.474 234.085,8.887 237.480,12.603 238.177 C 13.787 238.399,21.055 238.099,22.560 237.766 C 23.188 237.627,24.385 237.401,25.222 237.263 C 26.058 237.124,27.313 236.847,28.010 236.646 C 29.365 236.255,31.130 235.931,34.981 235.367 C 36.305 235.173,37.788 234.903,38.276 234.767 C 39.357 234.466,41.250 234.077,44.089 233.572 C 45.265 233.363,46.349 233.094,46.497 232.974 C 46.646 232.855,47.281 232.676,47.909 232.576 C 48.978 232.406,51.828 231.695,54.992 230.808 C 55.751 230.595,56.487 230.307,56.627 230.166 C 56.767 230.026,57.138 229.911,57.450 229.911 C 57.763 229.911,58.083 229.806,58.163 229.678 C 58.242 229.549,58.848 229.249,59.508 229.011 C 60.169 228.772,61.045 228.450,61.455 228.294 C 62.581 227.865,68.159 224.997,69.858 223.972 C 70.682 223.475,71.477 223.068,71.626 223.068 C 71.774 223.067,72.223 222.725,72.624 222.307 C 73.024 221.888,73.477 221.546,73.630 221.546 C 73.845 221.546,78.209 218.512,79.721 217.311 C 80.603 216.611,82.825 214.796,83.143 214.516 C 83.352 214.331,83.980 213.845,84.537 213.435 C 85.095 213.025,86.260 212.144,87.127 211.478 C 87.993 210.811,89.458 209.753,90.381 209.125 C 91.305 208.498,92.409 207.671,92.836 207.288 C 93.262 206.904,93.699 206.591,93.806 206.591 C 93.988 206.591,96.018 205.304,99.448 203.013 C 100.260 202.471,101.022 202.028,101.142 202.028 C 101.366 202.028,103.517 200.792,104.743 199.960 C 105.120 199.703,105.526 199.493,105.644 199.493 C 105.761 199.493,106.422 199.128,107.111 198.683 C 108.755 197.620,109.562 197.163,111.457 196.221 C 112.321 195.791,113.609 195.097,114.320 194.678 C 115.030 194.259,115.809 193.916,116.050 193.916 C 116.291 193.916,117.075 193.530,117.792 193.057 C 119.142 192.169,121.715 190.875,122.133 190.875 C 122.264 190.875,122.513 190.703,122.687 190.494 C 122.861 190.285,123.189 190.114,123.418 190.114 C 123.646 190.114,124.745 189.661,125.858 189.107 C 127.605 188.237,129.531 187.777,129.531 188.228 C 129.531 188.306,129.404 189.190,129.248 190.192 C 128.909 192.376,129.514 197.747,130.344 199.923 C 131.125 201.970,131.301 202.028,136.754 202.028 C 140.798 202.028,141.482 202.084,141.614 202.426 C 141.698 202.645,141.581 206.951,141.355 211.995 C 140.820 223.938,140.420 239.048,140.426 247.085 L 140.431 253.485 141.049 253.485 L 141.667 253.485 141.789 241.381 C 141.856 234.724,142.021 223.061,142.155 215.463 C 142.429 200.014,142.451 200.270,140.851 200.636 C 140.411 200.737,138.362 200.835,136.298 200.853 C 132.023 200.892,131.771 200.774,131.442 198.583 C 131.355 198.004,131.061 197.093,130.788 196.557 C 130.350 195.698,130.292 195.051,130.292 191.070 L 130.292 186.556 129.594 186.707 C 127.830 187.091,117.181 192.179,110.458 195.851 C 109.088 196.600,107.905 197.212,107.829 197.212 C 107.753 197.212,107.101 197.595,106.380 198.064 C 105.659 198.533,104.100 199.461,102.915 200.126 C 99.759 201.898,99.842 201.850,98.606 202.649 C 91.557 207.207,85.823 211.204,83.904 212.900 C 82.934 213.757,80.968 215.286,77.433 217.932 C 76.175 218.874,74.806 219.903,74.391 220.218 C 73.977 220.533,73.375 220.903,73.053 221.041 C 72.732 221.178,71.946 221.690,71.306 222.179 C 70.666 222.667,70.025 223.067,69.882 223.067 C 69.739 223.067,69.442 223.228,69.221 223.424 C 68.433 224.126,60.839 227.787,58.302 228.687 C 55.920 229.532,51.386 230.952,50.190 231.228 C 49.563 231.372,48.935 231.580,48.796 231.689 C 48.657 231.797,47.702 232.015,46.675 232.173 C 45.648 232.331,44.600 232.571,44.347 232.707 C 44.093 232.843,42.994 233.077,41.905 233.227 C 40.815 233.378,38.443 233.834,36.632 234.241 C 34.822 234.648,33.033 234.981,32.657 234.981 C 32.280 234.981,31.651 235.106,31.259 235.258 C 30.866 235.410,29.575 235.687,28.390 235.873 C 27.205 236.060,25.152 236.384,23.828 236.595 C 15.429 237.930,11.679 237.773,11.246 236.069 C 10.894 234.682,12.140 233.922,19.645 230.942 C 19.924 230.831,20.665 230.509,21.293 230.225 C 21.920 229.942,22.719 229.626,23.067 229.523 C 23.416 229.420,23.926 229.180,24.201 228.990 C 24.476 228.800,24.851 228.644,25.035 228.644 C 25.634 228.644,35.007 224.194,39.625 221.717 C 45.851 218.377,52.803 211.612,64.385 197.623 C 64.594 197.371,64.996 196.918,65.277 196.617 C 65.559 196.317,66.127 195.615,66.540 195.057 C 66.953 194.499,67.551 193.758,67.869 193.409 C 68.651 192.552,71.012 189.804,71.483 189.204 C 71.692 188.937,72.262 188.206,72.750 187.579 C 73.839 186.182,74.106 185.853,75.841 183.777 C 76.598 182.871,77.325 181.941,77.455 181.712 C 77.586 181.482,78.264 180.640,78.961 179.840 C 79.658 179.040,80.342 178.188,80.482 177.947 C 80.621 177.706,81.077 177.086,81.496 176.569 C 83.896 173.603,85.932 170.860,85.932 170.592 C 85.932 170.466,86.141 170.158,86.398 169.908 C 86.655 169.659,87.705 168.371,88.733 167.047 C 89.761 165.722,91.406 163.669,92.389 162.484 C 93.372 161.299,94.589 159.816,95.093 159.189 C 95.976 158.090,98.635 155.116,101.100 152.471 C 101.750 151.774,103.595 149.777,105.201 148.035 C 111.620 141.069,125.722 126.743,126.160 126.743 C 127.256 126.743,127.411 125.480,126.657 122.687 C 126.451 121.920,126.217 120.999,126.138 120.639 C 125.878 119.455,124.802 118.551,123.839 118.707 C 122.919 118.856,122.158 118.250,121.792 117.075 C 121.553 116.311,120.282 113.463,119.636 112.244 C 119.362 111.728,119.138 111.135,119.138 110.926 C 119.138 110.716,118.984 110.454,118.795 110.342 C 118.606 110.231,118.389 109.650,118.311 109.052 C 118.233 108.454,118.017 107.782,117.830 107.557 C 117.643 107.333,117.356 106.625,117.191 105.983 C 116.668 103.949,116.236 102.915,115.908 102.915 C 115.709 102.915,115.589 102.557,115.589 101.961 C 115.589 101.436,115.361 100.581,115.082 100.061 C 114.788 99.511,114.575 98.630,114.575 97.959 C 114.575 97.324,114.358 96.325,114.093 95.740 C 113.289 93.966,113.381 92.522,114.300 92.522 C 114.548 92.522,114.951 92.301,115.196 92.030 C 115.441 91.759,115.972 91.464,116.376 91.376 C 116.780 91.287,117.110 91.112,117.110 90.988 C 117.110 90.547,120.310 89.075,122.039 88.721 C 123.201 88.483,124.208 88.784,124.208 89.368 C 124.208 89.592,124.607 90.456,125.095 91.289 C 125.583 92.122,125.982 92.971,125.982 93.177 C 125.982 93.382,126.315 94.210,126.722 95.017 C 127.129 95.823,127.541 96.900,127.636 97.409 C 127.732 97.919,128.016 98.574,128.268 98.865 C 128.520 99.155,128.804 99.958,128.899 100.647 C 128.994 101.337,129.167 101.901,129.284 101.901 C 129.401 101.901,129.566 102.158,129.650 102.471 C 130.225 104.617,130.658 105.965,131.055 106.844 C 131.307 107.402,131.584 108.371,131.670 108.999 C 131.756 109.626,131.863 110.380,131.907 110.674 C 132.132 112.155,133.115 112.809,133.604 111.803 C 138.199 102.374,142.202 98.753,151.838 95.310 C 152.744 94.986,153.599 94.642,153.739 94.545 C 154.154 94.258,159.362 92.523,160.523 92.286 C 161.114 92.165,162.510 91.815,163.625 91.508 C 164.740 91.201,166.508 90.797,167.554 90.612 C 170.028 90.172,172.760 89.112,175.216 87.639 C 175.735 87.327,176.762 86.745,177.497 86.345 C 178.232 85.944,179.330 85.285,179.937 84.878 C 180.543 84.472,181.570 83.857,182.218 83.512 C 183.733 82.706,184.244 82.385,185.125 81.686 C 185.520 81.372,185.945 81.115,186.069 81.115 C 186.390 81.115,190.480 78.423,190.867 77.956 C 191.045 77.742,191.315 77.567,191.468 77.567 C 191.621 77.567,193.346 76.497,195.303 75.189 C 198.819 72.839,200.702 71.596,201.494 71.102 C 202.379 70.549,208.865 66.260,210.842 64.920 C 214.414 62.497,217.891 60.364,221.420 58.430 C 222.117 58.048,223.103 57.406,223.611 57.005 C 224.119 56.603,224.605 56.274,224.692 56.274 C 225.119 56.274,233.294 49.033,236.768 45.579 C 240.461 41.907,243.276 39.797,244.486 39.797 C 244.633 39.797,245.588 39.398,246.606 38.910 C 247.624 38.422,248.630 38.023,248.842 38.023 C 249.053 38.023,249.586 37.866,250.025 37.674 C 250.779 37.344,253.943 36.333,258.809 34.867 C 259.994 34.510,261.198 34.219,261.485 34.219 C 261.772 34.220,262.228 34.053,262.499 33.848 C 262.770 33.644,263.293 33.473,263.662 33.468 C 264.030 33.464,265.057 33.244,265.943 32.980 C 273.960 30.593,283.593 30.596,286.985 32.986 C 287.355 33.247,287.730 33.460,287.819 33.460 C 287.908 33.460,288.617 33.945,289.395 34.537 C 290.173 35.130,290.999 35.729,291.231 35.868 C 291.464 36.008,291.820 36.265,292.025 36.439 C 292.375 36.739,292.985 37.169,296.324 39.470 C 297.091 39.999,298.316 40.736,299.046 41.108 C 302.779 43.013,306.971 47.947,306.971 50.435 C 306.971 50.812,307.049 51.198,307.145 51.294 C 307.241 51.389,307.511 52.178,307.745 53.047 C 307.979 53.915,308.424 55.539,308.735 56.654 C 309.045 57.769,309.407 59.138,309.538 59.696 C 309.670 60.253,309.944 61.069,310.148 61.509 C 310.353 61.948,310.520 62.467,310.520 62.663 C 310.520 63.756,312.647 67.319,314.262 68.929 C 316.896 71.556,318.894 73.814,319.327 74.651 C 319.543 75.070,319.975 75.754,320.286 76.172 C 320.598 76.591,321.274 77.788,321.789 78.834 C 322.305 79.880,322.817 80.911,322.929 81.125 C 323.040 81.340,323.214 82.024,323.316 82.646 C 323.417 83.268,323.660 84.402,323.856 85.167 C 324.424 87.390,324.636 95.102,324.148 95.799 C 323.130 97.252,323.452 97.338,329.877 97.340 C 340.331 97.343,339.738 97.066,340.190 102.167 C 340.580 106.555,340.506 106.477,346.895 109.233 C 347.592 109.534,348.465 109.946,348.835 110.150 C 349.205 110.353,349.661 110.520,349.849 110.521 C 350.037 110.522,350.485 110.676,350.844 110.864 C 351.432 111.171,355.748 112.565,359.442 113.642 C 361.264 114.173,367.605 115.336,368.677 115.336 C 369.143 115.336,369.813 115.572,370.190 115.868 C 370.805 116.352,373.384 121.258,373.384 121.944 C 373.384 122.102,373.547 122.590,373.747 123.029 C 376.674 129.466,376.659 144.071,373.715 153.043 C 373.087 154.959,373.270 155.075,377.107 155.177 L 380.195 155.260 380.360 156.147 C 380.450 156.635,380.686 157.214,380.882 157.434 C 381.409 158.021,381.429 163.123,380.906 163.708 C 380.698 163.941,380.489 164.414,380.441 164.759 C 380.324 165.610,379.581 165.714,372.511 165.868 C 367.696 165.974,366.658 166.063,366.113 166.420 L 365.462 166.847 365.642 183.994 C 365.809 199.855,366.103 214.389,366.369 219.899 C 366.429 221.153,366.492 229.224,366.509 237.833 L 366.540 253.485 367.170 253.485 C 367.782 253.485,367.796 253.444,367.676 252.028 C 367.608 251.226,367.493 243.099,367.421 233.967 C 367.197 205.692,367.063 195.507,366.745 182.510 C 366.576 175.608,366.432 169.335,366.425 168.568 L 366.413 167.174 373.257 167.017 C 377.022 166.931,380.242 166.845,380.413 166.827 C 382.104 166.645,383.025 158.849,381.679 156.108 C 380.844 154.409,380.751 154.362,377.841 154.200 C 374.162 153.995,373.841 153.587,375.060 150.668 C 375.254 150.205,375.412 149.140,375.412 148.302 C 375.412 147.432,375.602 146.314,375.856 145.696 C 376.242 144.754,376.299 143.694,376.299 137.516 C 376.299 131.387,376.239 130.253,375.856 129.205 C 375.612 128.538,375.412 127.618,375.412 127.160 C 375.412 126.040,374.554 122.836,374.047 122.062 C 373.822 121.718,373.638 121.312,373.638 121.159 C 373.638 120.862,372.501 118.251,372.096 117.617 C 371.962 117.408,371.691 116.886,371.492 116.456 C 370.926 115.230,370.693 115.140,366.014 114.329 C 360.066 113.299,358.279 112.916,356.781 112.346 C 354.969 111.658,354.970 111.658,352.598 110.900 C 350.520 110.236,349.914 109.986,346.208 108.267 C 345.273 107.833,344.403 107.478,344.275 107.478 C 344.147 107.478,343.910 107.319,343.748 107.124 C 343.587 106.930,343.078 106.700,342.617 106.613 C 341.341 106.374,340.431 103.511,340.431 99.733 C 340.431 96.865,340.385 96.846,333.426 96.810 C 330.378 96.793,327.256 96.722,326.489 96.650 L 325.095 96.519 325.089 92.429 C 325.080 86.604,324.677 83.886,323.281 80.228 C 322.439 78.022,320.811 75.022,320.347 74.820 C 320.240 74.774,320.152 74.619,320.152 74.477 C 320.152 74.062,317.437 70.905,314.259 67.625 C 313.317 66.654,312.548 65.739,312.548 65.591 C 312.548 65.443,312.220 64.626,311.819 63.776 C 311.419 62.926,311.008 61.831,310.907 61.343 C 310.806 60.856,310.581 60.228,310.408 59.949 C 310.234 59.670,310.011 58.929,309.913 58.302 C 309.814 57.674,309.569 56.619,309.366 55.957 C 309.164 55.295,308.828 54.196,308.619 53.515 C 308.409 52.834,308.238 51.986,308.238 51.631 C 308.238 50.957,307.018 47.697,306.545 47.107 C 306.395 46.921,306.195 46.516,306.101 46.209 C 305.773 45.139,301.512 41.432,299.326 40.314 C 297.415 39.338,295.770 38.256,294.320 37.021 C 293.984 36.736,293.561 36.502,293.379 36.502 C 293.197 36.502,292.845 36.292,292.595 36.035 C 291.800 35.216,287.928 32.445,286.748 31.850 C 284.488 30.710,279.098 30.084,274.525 30.430 M288.213 85.457 C 284.387 87.525,284.298 87.836,286.697 90.748 C 287.673 91.933,288.666 93.188,288.904 93.536 C 289.142 93.885,290.143 95.139,291.127 96.324 C 292.111 97.510,293.255 98.895,293.670 99.404 C 296.708 103.134,298.867 105.672,300.859 107.853 C 303.599 110.854,303.614 110.941,301.631 112.265 C 299.147 113.924,297.099 113.966,294.781 112.406 C 294.068 111.926,293.407 111.534,293.312 111.534 C 293.216 111.534,292.449 110.878,291.606 110.076 C 284.994 103.785,282.860 102.175,277.693 99.574 C 274.539 97.987,272.661 96.568,271.825 95.141 C 271.470 94.536,271.045 93.956,270.881 93.852 C 270.717 93.748,270.092 92.636,269.494 91.381 C 268.895 90.127,268.299 88.929,268.168 88.720 C 268.038 88.511,267.868 88.169,267.792 87.959 C 267.037 85.895,265.887 85.887,262.357 87.925 C 262.148 88.045,261.293 88.464,260.456 88.854 C 256.865 90.532,253.992 93.292,253.992 95.066 C 253.992 95.284,253.885 95.571,253.753 95.703 C 253.622 95.836,253.397 96.401,253.254 96.958 C 251.336 104.429,250.385 107.842,250.091 108.308 C 249.896 108.618,249.651 109.156,249.547 109.502 C 249.299 110.328,248.233 111.627,245.786 114.088 C 243.959 115.924,243.803 116.161,243.945 116.874 C 244.112 117.709,245.967 121.548,246.509 122.180 C 246.688 122.389,246.909 122.806,247.001 123.106 C 247.197 123.751,249.589 126.330,250.317 126.681 C 251.753 127.373,256.700 126.884,262.611 125.467 C 263.796 125.183,265.279 124.832,265.906 124.687 C 267.420 124.339,272.870 124.632,273.799 125.113 C 274.184 125.312,274.698 125.475,274.940 125.475 C 276.303 125.475,278.074 127.778,278.074 129.552 C 278.074 130.473,277.905 130.475,276.800 129.568 C 273.538 126.891,270.598 127.806,273.254 130.672 C 273.878 131.346,274.616 133.237,274.436 133.705 C 274.319 134.010,273.982 133.930,272.571 133.262 C 270.930 132.484,270.707 132.446,267.807 132.446 C 265.725 132.446,264.577 132.339,264.167 132.105 C 262.492 131.151,260.031 131.977,256.243 134.766 C 255.456 135.345,254.543 135.957,254.213 136.127 C 253.882 136.297,253.241 136.788,252.787 137.218 C 251.723 138.224,249.133 138.512,247.973 137.751 C 246.061 136.499,242.875 133.768,239.191 130.225 C 235.748 126.914,235.657 126.924,233.905 130.798 C 233.061 132.665,228.840 141.120,228.187 142.250 C 227.811 142.902,227.231 143.928,226.899 144.531 C 226.566 145.134,226.211 145.684,226.109 145.754 C 226.007 145.824,225.835 146.166,225.727 146.515 C 225.619 146.863,225.147 147.545,224.678 148.029 C 223.387 149.363,223.553 151.077,224.973 151.077 C 225.136 151.077,225.474 151.303,225.723 151.578 C 225.972 151.853,226.412 152.153,226.701 152.245 C 227.374 152.459,231.686 155.385,231.686 155.629 C 231.686 155.730,231.968 155.941,232.314 156.098 C 233.970 156.853,238.783 162.199,238.783 163.284 C 238.783 163.485,238.884 163.759,239.008 163.891 C 239.475 164.392,240.357 169.437,240.225 170.849 C 240.020 173.030,239.354 176.264,238.942 177.079 C 238.736 177.487,238.147 178.733,237.632 179.848 C 237.118 180.963,236.596 182.047,236.472 182.256 C 236.348 182.465,236.131 182.921,235.989 183.270 C 235.847 183.619,235.615 184.132,235.474 184.411 C 235.151 185.048,234.538 187.423,234.100 189.734 C 233.178 194.600,232.899 195.909,232.559 196.958 C 232.356 197.586,232.191 198.503,232.191 198.996 C 232.192 199.490,232.027 200.528,231.825 201.305 C 228.981 212.225,230.819 220.929,235.543 218.909 C 239.455 217.236,241.299 216.477,241.450 216.477 C 241.954 216.477,245.951 213.792,247.275 212.564 C 248.112 211.788,248.871 211.154,248.962 211.153 C 249.053 211.153,249.606 210.754,250.190 210.266 C 252.472 208.359,255.895 207.932,258.638 209.211 C 260.098 209.891,262.611 212.190,262.611 212.845 C 262.611 213.078,262.796 213.472,263.022 213.722 C 263.846 214.632,263.316 220.716,262.332 221.651 C 262.276 221.704,261.114 221.804,259.749 221.874 L 257.267 222.000 255.820 223.331 C 255.024 224.063,254.187 224.869,253.959 225.123 C 253.135 226.042,249.347 228.382,248.449 228.527 C 246.463 228.848,242.302 230.908,237.371 234.012 C 236.525 234.545,235.736 234.981,235.617 234.981 C 235.498 234.981,235.221 235.137,235.001 235.329 C 233.183 236.908,227.883 236.976,227.883 235.421 C 227.883 235.295,227.483 234.510,226.993 233.674 C 226.504 232.839,225.993 231.736,225.859 231.224 C 225.240 228.861,224.610 226.681,224.357 226.029 C 224.205 225.637,224.081 225.111,224.081 224.860 C 224.081 223.318,219.952 216.722,217.237 213.928 C 211.607 208.133,209.379 202.751,209.379 194.942 C 209.379 192.633,209.496 190.346,209.639 189.859 C 210.718 186.175,210.517 184.460,208.943 183.924 C 206.661 183.146,205.943 183.387,206.457 184.756 C 207.703 188.069,207.868 194.998,206.745 196.831 C 206.575 197.110,206.296 197.818,206.126 198.405 C 205.712 199.831,205.969 199.765,200.493 199.849 C 193.527 199.955,194.114 198.355,194.764 215.463 C 194.857 217.902,194.995 222.009,195.071 224.588 C 195.273 231.454,195.260 251.976,195.053 252.788 C 194.886 253.442,194.926 253.485,195.699 253.485 L 196.523 253.485 196.370 238.086 C 196.285 229.617,196.106 221.090,195.971 219.138 C 195.648 214.458,195.506 201.621,195.775 201.352 C 195.891 201.236,198.229 201.077,200.971 201.000 C 206.937 200.832,207.593 200.554,207.608 198.187 C 207.623 195.942,208.570 197.187,208.906 199.894 C 209.120 201.613,209.795 204.140,210.333 205.232 C 211.300 207.196,212.135 208.675,212.888 209.759 C 214.415 211.956,217.300 215.478,217.785 215.738 C 218.041 215.875,218.251 216.110,218.251 216.259 C 218.251 216.408,218.580 216.946,218.982 217.454 C 220.157 218.938,222.053 221.841,222.053 222.157 C 222.053 222.317,222.213 222.675,222.408 222.954 C 222.603 223.232,223.064 224.484,223.432 225.735 C 223.800 226.986,224.211 228.208,224.345 228.450 C 224.479 228.692,224.588 229.093,224.588 229.340 C 224.588 231.038,226.944 235.913,228.221 236.858 C 229.117 237.520,232.197 237.566,233.365 236.934 C 233.766 236.717,234.892 236.168,235.868 235.715 C 236.844 235.261,238.478 234.340,239.499 233.668 C 240.520 232.996,241.481 232.446,241.634 232.446 C 241.787 232.446,242.092 232.292,242.312 232.104 C 242.863 231.632,244.417 230.851,246.451 230.024 C 247.392 229.641,248.162 229.246,248.162 229.146 C 248.162 229.045,248.661 228.907,249.271 228.838 C 250.623 228.686,252.819 227.303,254.695 225.421 C 255.430 224.684,256.149 224.081,256.293 224.081 C 256.438 224.081,256.876 223.731,257.267 223.302 C 257.942 222.564,258.103 222.516,260.394 222.380 L 262.810 222.235 263.344 221.166 C 264.037 219.778,264.156 213.220,263.498 212.674 C 263.289 212.501,263.118 212.213,263.118 212.034 C 263.118 211.588,260.854 209.456,259.522 208.648 C 258.281 207.896,253.047 207.684,251.711 208.333 C 250.530 208.906,249.837 209.348,249.189 209.941 C 248.833 210.267,248.257 210.716,247.909 210.941 C 247.560 211.165,246.591 211.935,245.754 212.651 C 244.918 213.368,244.108 214.054,243.954 214.176 C 243.801 214.298,243.002 214.714,242.180 215.099 C 241.357 215.485,240.627 215.881,240.558 215.980 C 240.488 216.079,240.068 216.238,239.625 216.334 C 239.181 216.430,238.682 216.673,238.516 216.873 C 238.350 217.073,238.027 217.237,237.798 217.237 C 237.569 217.237,236.956 217.465,236.436 217.744 C 235.311 218.347,233.409 218.417,232.867 217.875 C 231.434 216.442,230.985 208.689,232.052 203.802 C 232.250 202.896,232.530 201.413,232.673 200.507 C 233.228 197.003,233.527 195.531,233.858 194.677 C 234.048 194.189,234.277 193.219,234.367 192.522 C 234.457 191.825,234.861 190.027,235.263 188.526 C 235.666 187.024,235.995 185.540,235.995 185.226 C 235.995 184.913,236.220 184.259,236.495 183.773 C 237.048 182.796,238.757 179.331,239.368 177.947 C 239.583 177.459,239.838 176.660,239.934 176.172 C 240.031 175.684,240.239 175.125,240.397 174.930 C 240.797 174.435,240.792 166.495,240.391 166.009 C 240.230 165.813,239.974 164.979,239.822 164.157 C 239.140 160.453,234.681 155.991,227.250 151.578 C 224.705 150.067,224.214 149.267,225.344 148.471 C 225.585 148.301,225.872 147.877,225.981 147.529 C 226.090 147.180,226.391 146.623,226.651 146.290 C 226.910 145.958,227.123 145.542,227.123 145.367 C 227.123 145.191,227.282 144.987,227.476 144.912 C 227.670 144.838,228.131 144.170,228.499 143.428 C 228.868 142.686,230.135 140.213,231.315 137.933 C 232.495 135.653,233.460 133.578,233.460 133.322 C 233.460 133.066,233.579 132.783,233.724 132.693 C 233.869 132.603,234.338 131.749,234.764 130.794 C 235.958 128.125,235.781 128.070,240.558 132.581 C 244.024 135.854,246.465 137.846,247.584 138.315 C 249.365 139.061,252.848 138.629,253.866 137.535 C 254.319 137.048,255.239 136.386,258.267 134.367 C 260.696 132.747,262.083 132.252,262.989 132.681 C 263.450 132.901,264.031 133.080,264.279 133.080 C 264.527 133.080,265.113 133.218,265.582 133.388 C 266.250 133.630,266.540 133.630,266.927 133.388 C 267.500 133.030,270.722 132.967,270.722 133.313 C 270.722 133.442,271.093 133.627,271.546 133.726 C 271.999 133.825,272.693 134.176,273.087 134.507 C 274.301 135.525,276.193 134.870,275.425 133.698 C 275.215 133.377,274.967 132.636,274.873 132.049 C 274.772 131.419,274.403 130.643,273.971 130.151 C 272.493 128.467,274.616 128.725,276.550 130.464 C 278.208 131.955,278.580 131.735,278.580 129.266 C 278.580 126.087,276.690 124.577,272.243 124.204 C 271.058 124.105,269.846 123.942,269.549 123.841 C 268.929 123.630,262.924 124.354,262.508 124.689 C 262.355 124.811,261.489 124.994,260.583 125.095 C 259.677 125.196,258.476 125.433,257.914 125.622 C 256.729 126.019,252.315 126.379,251.408 126.151 C 250.612 125.951,247.782 123.194,247.272 122.120 C 247.056 121.665,246.613 120.830,246.289 120.265 C 245.965 119.700,245.554 118.788,245.377 118.237 C 245.200 117.687,244.945 117.099,244.811 116.931 C 244.639 116.713,245.222 115.953,246.809 114.323 C 250.015 111.030,252.311 106.230,252.839 101.722 C 252.923 100.997,253.161 99.927,253.366 99.346 C 253.571 98.764,253.739 98.021,253.739 97.695 C 253.739 97.153,254.095 96.288,255.189 94.170 C 255.693 93.195,257.547 91.255,257.974 91.255 C 258.154 91.255,258.302 91.165,258.302 91.054 C 258.302 90.879,259.120 90.397,261.597 89.112 C 263.540 88.105,266.660 86.854,266.824 87.018 C 266.901 87.096,267.075 87.653,267.209 88.257 C 267.493 89.537,269.159 93.029,269.485 93.029 C 269.608 93.029,269.708 93.160,269.708 93.320 C 269.708 94.847,274.933 99.873,276.521 99.873 C 277.983 99.873,286.397 105.938,289.851 109.482 C 290.543 110.192,291.258 110.773,291.441 110.773 C 291.623 110.773,291.891 111.030,292.037 111.343 C 292.782 112.953,298.825 115.402,299.471 114.357 C 299.565 114.206,300.075 113.965,300.605 113.823 C 301.134 113.680,301.810 113.363,302.105 113.119 C 302.400 112.874,303.103 112.353,303.665 111.961 C 304.948 111.067,304.921 111.005,301.686 107.433 C 300.382 105.994,298.871 104.303,298.328 103.676 C 297.785 103.048,296.799 101.907,296.136 101.140 C 295.473 100.373,294.499 99.155,293.972 98.434 C 293.444 97.712,292.931 97.085,292.831 97.040 C 292.731 96.995,292.310 96.502,291.897 95.944 C 291.483 95.387,290.336 93.961,289.347 92.776 C 288.359 91.591,287.166 90.079,286.697 89.416 L 285.845 88.211 286.406 87.614 C 287.669 86.269,290.763 85.064,291.681 85.558 C 292.313 85.899,296.125 89.300,297.406 90.667 C 297.513 90.781,298.358 91.673,299.285 92.649 C 300.211 93.625,301.496 95.051,302.141 95.817 C 302.785 96.584,303.651 97.568,304.065 98.003 C 305.084 99.076,306.412 100.621,308.398 103.042 C 310.660 105.800,311.066 105.978,313.109 105.111 C 313.985 104.739,314.807 104.435,314.936 104.435 C 315.064 104.436,315.349 104.284,315.569 104.099 C 315.962 103.768,318.061 102.915,318.482 102.915 C 318.600 102.915,318.614 103.856,318.513 105.006 C 318.332 107.079,318.294 107.650,317.999 112.801 C 317.914 114.265,317.823 124.075,317.795 134.601 L 317.744 153.739 312.130 153.807 L 306.517 153.875 306.291 152.923 C 306.091 152.075,305.962 151.953,305.115 151.816 C 304.583 151.729,303.840 151.351,303.430 150.958 C 302.726 150.284,302.035 150.146,300.127 150.301 C 299.918 150.318,298.565 150.293,297.121 150.246 C 294.420 150.158,293.650 150.392,292.953 151.512 C 292.659 151.985,290.965 151.911,290.234 151.394 C 289.345 150.765,287.162 150.286,286.748 150.629 C 286.518 150.820,286.238 150.814,285.788 150.609 C 285.332 150.401,284.825 150.392,283.998 150.578 C 283.364 150.720,281.306 150.842,279.426 150.849 C 276.503 150.860,275.942 150.927,275.558 151.311 C 275.265 151.604,274.546 151.811,273.489 151.907 C 271.710 152.069,270.722 152.805,270.722 153.970 C 270.722 154.596,269.372 154.880,266.399 154.880 C 264.169 154.880,263.154 157.379,263.429 162.195 C 263.719 167.287,264.403 167.747,271.729 167.788 C 276.289 167.813,277.505 167.891,277.793 168.179 C 278.219 168.605,278.240 188.007,277.821 193.790 C 277.689 195.602,277.581 197.940,277.579 198.986 C 277.577 200.032,277.507 212.722,277.422 227.186 C 277.312 246.051,277.347 253.485,277.544 253.485 C 277.739 253.485,277.820 249.681,277.820 240.494 C 277.820 230.005,277.893 227.157,278.196 225.705 C 278.501 224.239,278.592 220.284,278.688 204.286 C 278.753 193.494,278.917 182.269,279.053 179.341 C 279.423 171.397,279.446 168.019,279.135 167.252 C 278.792 166.407,277.888 165.864,277.489 166.263 C 277.135 166.617,267.081 166.644,266.425 166.293 C 265.290 165.685,263.862 161.755,264.333 160.533 C 264.483 160.142,264.746 158.996,264.917 157.985 C 265.185 156.397,265.299 156.145,265.757 156.133 C 270.311 156.013,271.483 155.625,271.483 154.235 C 271.483 153.020,272.034 152.598,273.621 152.598 C 274.719 152.598,275.079 152.481,275.605 151.956 C 276.176 151.385,276.452 151.315,278.111 151.317 C 279.136 151.319,280.459 151.317,281.052 151.313 C 281.644 151.308,282.329 151.309,282.573 151.313 C 282.817 151.318,284.271 151.280,285.805 151.229 C 288.195 151.149,288.706 151.204,289.384 151.613 C 290.516 152.298,292.739 152.266,293.646 151.552 C 294.249 151.078,294.640 151.017,296.912 151.040 C 299.731 151.069,300.295 151.066,301.698 151.011 C 302.302 150.987,302.823 151.145,303.164 151.454 C 303.455 151.717,304.173 151.997,304.759 152.075 C 305.808 152.216,305.827 152.236,305.994 153.409 C 306.088 154.065,306.240 154.722,306.331 154.870 C 306.557 155.235,317.615 155.197,318.058 154.829 C 318.309 154.621,318.377 151.376,318.374 139.830 C 318.372 131.726,318.504 119.986,318.667 113.741 C 319.010 100.613,319.155 101.417,316.666 102.634 C 314.233 103.823,314.334 103.780,312.775 104.298 C 310.884 104.925,311.319 105.270,306.132 99.026 C 302.444 94.587,294.592 86.500,292.730 85.224 C 291.195 84.172,290.526 84.206,288.213 85.457 M130.961 115.133 C 130.726 116.012,130.766 116.746,131.093 117.537 C 131.380 118.231,131.394 118.211,131.586 116.837 C 131.694 116.060,131.818 115.268,131.861 115.078 C 132.001 114.456,131.128 114.510,130.961 115.133 M280.480 119.141 C 280.312 119.413,281.642 120.662,282.424 120.968 C 282.680 121.068,282.890 121.312,282.890 121.511 C 282.890 121.710,283.061 121.938,283.270 122.018 C 283.479 122.098,283.650 122.339,283.650 122.552 C 283.650 122.766,283.787 122.940,283.954 122.940 C 284.178 122.940,284.184 123.015,283.976 123.223 C 283.660 123.539,283.151 123.323,283.129 122.862 C 283.104 122.338,280.609 120.627,279.641 120.470 C 279.130 120.387,278.560 120.168,278.374 119.982 C 277.968 119.576,276.598 119.543,275.619 119.918 C 274.774 120.240,275.358 120.913,276.482 120.913 C 276.809 120.913,277.139 121.079,277.218 121.283 C 277.296 121.487,277.588 121.726,277.867 121.815 C 279.438 122.313,282.078 124.786,282.757 126.395 C 283.192 127.426,283.514 127.603,284.025 127.092 C 284.410 126.707,284.492 126.725,285.137 127.343 C 286.400 128.554,286.946 127.904,286.946 125.191 C 286.946 122.864,284.925 119.645,283.465 119.645 C 283.322 119.645,283.063 119.474,282.890 119.265 C 282.534 118.836,280.726 118.743,280.480 119.141 M283.888 120.612 C 285.629 121.671,287.473 125.982,286.185 125.982 C 286.046 125.982,285.932 125.886,285.932 125.768 C 285.932 125.649,285.703 125.290,285.425 124.968 C 285.146 124.647,284.918 124.137,284.918 123.835 C 284.918 123.301,283.200 120.760,282.569 120.359 C 281.883 119.923,283.157 120.168,283.888 120.612 M280.553 121.540 C 282.068 122.335,282.777 122.947,283.001 123.652 C 283.098 123.958,283.284 124.208,283.414 124.208 C 283.544 124.208,283.650 124.623,283.650 125.130 L 283.650 126.052 282.953 125.192 C 281.470 123.362,279.741 121.915,278.607 121.555 C 278.313 121.461,278.074 121.279,278.074 121.149 C 278.074 120.708,279.353 120.910,280.553 121.540 M284.332 124.651 C 284.268 124.895,284.216 124.696,284.216 124.208 C 284.216 123.720,284.268 123.520,284.332 123.764 C 284.396 124.008,284.396 124.407,284.332 124.651 M267.308 135.843 C 267.109 136.470,268.083 138.336,268.715 138.536 C 268.982 138.621,269.202 138.782,269.202 138.893 C 269.202 139.404,272.440 140.189,273.862 140.021 C 275.169 139.868,275.285 139.802,275.285 139.216 C 275.285 138.595,275.271 138.590,274.781 139.034 C 274.294 139.475,274.246 139.469,273.324 138.836 C 272.799 138.476,272.028 138.099,271.610 137.999 C 270.873 137.822,268.777 136.323,268.365 135.678 C 268.062 135.205,267.482 135.296,267.308 135.843 M264.554 137.305 C 263.393 138.466,266.890 142.459,269.068 142.459 C 271.006 142.459,271.820 141.424,270.279 140.919 C 268.998 140.499,268.328 140.038,266.718 138.466 C 265.414 137.194,264.927 136.932,264.554 137.305 M269.708 137.926 C 269.708 138.191,269.628 138.200,269.096 137.996 C 268.513 137.772,268.603 137.413,269.202 137.569 C 269.480 137.642,269.708 137.802,269.708 137.926 M270.976 138.657 C 271.283 138.855,271.247 138.903,270.786 138.906 C 270.472 138.908,270.215 138.796,270.215 138.657 C 270.215 138.339,270.484 138.339,270.976 138.657 M266.160 138.856 C 266.160 139.141,268.573 140.904,269.387 141.214 C 269.937 141.423,269.998 141.520,269.700 141.709 C 268.552 142.435,266.363 141.043,265.797 139.227 C 265.688 138.880,265.725 138.657,265.889 138.657 C 266.038 138.657,266.160 138.746,266.160 138.856 M347.022 166.056 C 345.279 166.148,331.224 166.312,315.788 166.420 L 287.724 166.615 287.153 167.222 C 286.510 167.907,286.548 167.537,286.331 175.285 C 286.245 178.352,286.066 182.801,285.932 185.171 C 285.504 192.741,285.304 219.051,285.421 252.408 C 285.424 253.286,285.511 253.485,285.894 253.485 C 286.346 253.485,286.369 252.541,286.534 226.933 C 286.793 186.841,287.388 168.368,288.434 167.911 C 288.831 167.737,313.112 167.445,342.438 167.262 L 356.485 167.174 356.809 168.695 C 357.099 170.054,357.440 177.976,357.797 191.635 C 357.937 197.004,358.362 235.126,358.401 245.817 L 358.428 253.485 359.125 253.486 L 359.823 253.486 359.766 245.437 C 359.735 241.011,359.582 234.708,359.425 231.432 C 359.268 228.156,359.147 222.338,359.155 218.504 C 359.185 204.968,358.744 180.396,358.444 178.834 C 358.283 177.997,358.101 174.975,358.039 172.117 C 357.928 167.015,357.915 166.916,357.353 166.672 C 357.038 166.535,356.667 166.282,356.527 166.109 C 356.347 165.886,356.001 165.858,355.336 166.011 C 354.820 166.130,354.330 166.159,354.247 166.076 C 354.037 165.866,350.788 165.857,347.022 166.056 M209.226 185.932 C 209.212 186.629,209.085 188.112,208.943 189.227 L 208.686 191.255 208.652 189.646 C 208.634 188.761,208.438 187.415,208.216 186.654 C 207.747 185.040,207.875 184.469,208.681 184.583 C 209.191 184.655,209.249 184.800,209.226 185.932 M185.551 199.843 C 185.551 200.052,185.455 200.283,185.338 200.356 C 184.946 200.598,152.507 200.729,152.061 200.491 C 151.316 200.092,150.063 201.497,150.063 202.731 C 150.063 203.285,149.910 204.181,149.723 204.721 C 149.499 205.365,149.455 205.965,149.593 206.464 C 149.717 206.909,149.686 208.066,149.519 209.252 C 148.998 212.946,148.779 253.485,149.280 253.485 C 149.396 253.485,149.549 248.723,149.620 242.902 C 149.776 230.125,150.539 207.168,150.832 206.464 C 150.947 206.185,151.092 205.126,151.153 204.110 C 151.214 203.094,151.346 202.182,151.445 202.082 C 151.682 201.845,162.279 201.575,175.285 201.475 L 185.678 201.394 185.854 202.281 C 186.456 205.320,186.972 219.106,187.211 238.593 C 187.390 253.161,187.405 253.485,187.892 253.485 C 188.489 253.485,188.521 221.750,187.924 221.015 C 187.731 220.776,187.581 218.070,187.469 212.801 C 187.239 201.891,187.193 201.273,186.569 200.836 C 186.288 200.639,186.058 200.320,186.058 200.127 C 186.058 199.934,185.944 199.706,185.805 199.620 C 185.665 199.534,185.551 199.634,185.551 199.843 " stroke="none" fill="#6cb0ae" fill-rule="evenodd"></path></g></svg>